<?xml version="1.0" encoding="UTF-8" standalone="yes"?>
<!DOCTYPE svg PUBLIC "-//W3C//DTD SVG 1.0//EN" "http://www.w3.org/TR/2001/REC-SVG-20010904/DTD/svg10.dtd">
<svg width="129" height="129" xmlns="http://www.w3.org/2000/svg" xmlns:svg="http://www.w3.org/2000/svg" xmlns:xlink="http://www.w3.org/1999/xlink" xmlns:slic3r="http://slic3r.org/namespaces/slic3r">
  <!-- 
  Generated using Slic3r 1.3.1-dev
  http://slic3r.org/
   -->
  <g id="layer0" slic3r:z="1.75e-07">
    <polygon slic3r:type="contour" points="129,129 0,129 0,0 129,0" style="fill: white" />
    <polygon slic3r:type="hole" points="125.109816,123.538432 124.734632,123.65224 124.388855,123.837056 124.085784,124.085783 123.837056,124.388855 123.652239,124.734632 123.538432,125.109816 123.5,125.499999 123.538432,125.890183 123.65224,126.265368 123.837056,126.611144 124.085783,126.914216 124.388855,127.162943 124.734632,127.34776 125.109816,127.461568 125.499999,127.5 125.890183,127.461568 126.265368,127.34776 126.611144,127.162943 126.914216,126.914216 127.162943,126.611144 127.34776,126.265367 127.461568,125.890183 127.5,125.5 127.461568,125.109816 127.34776,124.734632 127.162943,124.388855 126.914216,124.085784 126.611144,123.837056 126.265367,123.652239 125.890183,123.538432 125.5,123.5" style="fill: black" />
    <polygon slic3r:type="hole" points="3.109817,123.538432 2.734634,123.65224 2.388858,123.837055 2.085784,124.085784 1.837058,124.388856 1.652239,124.734632 1.538429,125.109815 1.5,125.5 1.538429,125.890184 1.65224,126.265367 1.837059,126.611144 2.085784,126.914216 2.388857,127.162943 2.734634,127.34776 3.109817,127.461568 3.499999,127.5 3.890181,127.461568 4.265364,127.347759 4.611141,127.162944 4.914214,126.914216 5.16294,126.611144 5.347759,126.265367 5.461569,125.890184 5.5,125.5 5.46157,125.109816 5.347759,124.734632 5.16294,124.388855 4.914215,124.085784 4.611141,123.837056 4.265365,123.65224 3.890182,123.538432 3.499999,123.5" style="fill: black" />
    <polygon slic3r:type="hole" points="125.109815,1.538429 124.734632,1.65224 124.388855,1.837059 124.085784,2.085784 123.837056,2.388857 123.65224,2.734634 123.538432,3.109817 123.5,3.499999 123.538432,3.890181 123.65224,4.265364 123.837055,4.611141 124.085783,4.914214 124.388855,5.16294 124.734632,5.347759 125.109815,5.46157 125.499999,5.5 125.890184,5.46157 126.265367,5.347759 126.611144,5.16294 126.914215,4.914215 127.162943,4.611141 127.34776,4.265364 127.461568,3.890182 127.5,3.499999 127.461568,3.109817 127.347759,2.734634 127.162944,2.388858 126.914216,2.085784 126.611144,1.837059 126.265367,1.652239 125.890184,1.538429 125.5,1.5" style="fill: black" />
    <polygon slic3r:type="hole" points="3.109817,1.538428 2.734634,1.65224 2.388858,1.837058 2.085784,2.085783 1.837059,2.388857 1.652239,2.734634 1.538428,3.109817 1.499999,3.5 1.538428,3.890182 1.65224,4.265365 1.837058,4.61114 2.085784,4.914215 2.388857,5.16294 2.734634,5.347759 3.109817,5.46157 3.499999,5.5 3.890182,5.46157 4.265365,5.347759 4.61114,5.162941 4.914214,4.914215 5.16294,4.611141 5.347758,4.265365 5.46157,3.890181 5.5,3.5 5.46157,3.109817 5.347758,2.734633 5.162941,2.388858 4.914215,2.085784 4.611141,1.837059 4.265365,1.65224 3.890181,1.538429 3.499999,1.5" style="fill: black" />
  </g>
  <g id="layer1" slic3r:z="5e-07">
    <polygon slic3r:type="contour" points="129,129 0,129 0,0 129,0" style="fill: white" />
    <polygon slic3r:type="hole" points="3.109817,123.538432 2.734633,123.65224 2.388858,123.837056 2.085784,124.085784 1.837059,124.388855 1.65224,124.734631 1.538429,125.109816 1.5,125.5 1.538429,125.890184 1.652239,126.265367 1.837059,126.611144 2.085784,126.914216 2.388858,127.162944 2.734633,127.347759 3.109817,127.461568 3.499999,127.5 3.890181,127.461568 4.265365,127.34776 4.61114,127.162944 4.914215,126.914216 5.16294,126.611144 5.347759,126.265367 5.46157,125.890183 5.5,125.499999 5.46157,125.109815 5.347759,124.734632 5.162941,124.388856 4.914214,124.085783 4.61114,123.837055 4.265364,123.652239 3.890182,123.538432 3.5,123.5" style="fill: black" />
    <polygon slic3r:type="hole" points="125.109816,123.538432 124.734632,123.65224 124.388856,123.837055 124.085784,124.085783 123.837056,124.388855 123.65224,124.734631 123.538432,125.109816 123.5,125.5 123.538432,125.890183 123.65224,126.265367 123.837055,126.611143 124.085783,126.914215 124.388855,127.162943 124.734631,127.347759 125.109816,127.461568 125.5,127.5 125.890183,127.461568 126.265367,127.347759 126.611143,127.162944 126.914215,126.914216 127.162943,126.611144 127.347759,126.265368 127.461568,125.890183 127.5,125.5 127.461568,125.109816 127.347759,124.734632 127.162944,124.388856 126.914216,124.085784 126.611144,123.837056 126.265368,123.65224 125.890183,123.538432 125.5,123.5" style="fill: black" />
    <polygon slic3r:type="hole" points="3.109816,1.538429 2.734634,1.652239 2.388857,1.837059 2.085784,2.085784 1.837058,2.388858 1.65224,2.734633 1.538429,3.109816 1.5,3.499999 1.538429,3.890182 1.652239,4.265365 1.837059,4.611141 2.085784,4.914214 2.388858,5.162941 2.734633,5.347758 3.109816,5.46157 3.5,5.5 3.890182,5.46157 4.265365,5.347759 4.61114,5.162941 4.914214,4.914215 5.162941,4.611141 5.347759,4.265365 5.46157,3.890182 5.5,3.499999 5.46157,3.109816 5.347759,2.734634 5.162941,2.388858 4.914215,2.085784 4.611141,1.837059 4.265364,1.652239 3.890182,1.538429 3.5,1.499999" style="fill: black" />
    <polygon slic3r:type="hole" points="125.109815,1.538429 124.734632,1.652239 124.388856,1.837059 124.085783,2.085784 123.837055,2.388858 123.65224,2.734633 123.538432,3.109817 123.5,3.499999 123.538431,3.890181 123.65224,4.265365 123.837055,4.61114 124.085784,4.914215 124.388855,5.16294 124.734632,5.347759 125.109816,5.46157 125.5,5.5 125.890184,5.46157 126.265367,5.347759 126.611143,5.162941 126.914216,4.914214 127.162944,4.61114 127.34776,4.265364 127.461568,3.890182 127.5,3.5 127.461568,3.109817 127.347759,2.734633 127.162944,2.388858 126.914216,2.085784 126.611144,1.837059 126.265368,1.65224 125.890183,1.538429 125.5,1.5" style="fill: black" />
  </g>
  <g id="layer2" slic3r:z="8e-07">
    <polygon slic3r:type="contour" points="129,129 0,129 0,0 129,0" style="fill: white" />
    <polygon slic3r:type="hole" points="125.109815,123.538432 124.734631,123.65224 124.388856,123.837055 124.085783,124.085784 123.837056,124.388856 123.652239,124.734632 123.538432,125.109816 123.5,125.499999 123.538432,125.890184 123.65224,126.265368 123.837055,126.611143 124.085784,126.914216 124.388856,127.162944 124.734632,127.34776 125.109816,127.461568 125.499999,127.5 125.890184,127.461568 126.265368,127.347759 126.611143,127.162944 126.914216,126.914216 127.162944,126.611144 127.34776,126.265367 127.461568,125.890183 127.5,125.5 127.461568,125.109815 127.347759,124.734631 127.162944,124.388856 126.914216,124.085783 126.611144,123.837056 126.265367,123.652239 125.890183,123.538432 125.5,123.5" style="fill: black" />
    <polygon slic3r:type="hole" points="3.109816,123.538432 2.734634,123.652239 2.388857,123.837056 2.085784,124.085783 1.837058,124.388856 1.652239,124.734632 1.538429,125.109816 1.5,125.499999 1.538429,125.890184 1.65224,126.265368 1.837059,126.611144 2.085783,126.914215 2.388857,127.162944 2.734634,127.34776 3.109816,127.461567 3.5,127.5 3.890182,127.461567 4.265364,127.34776 4.611141,127.162943 4.914215,126.914216 5.162941,126.611144 5.347759,126.265367 5.46157,125.890183 5.5,125.5 5.46157,125.109815 5.347758,124.734631 5.162941,124.388856 4.914215,124.085784 4.611141,123.837056 4.265364,123.65224 3.890182,123.538432 3.5,123.5" style="fill: black" />
    <polygon slic3r:type="hole" points="3.109816,1.538429 2.734634,1.652239 2.388857,1.837059 2.085784,2.085783 1.837059,2.388858 1.65224,2.734634 1.538429,3.109816 1.5,3.5 1.538429,3.890182 1.652239,4.265364 1.837059,4.611141 2.085783,4.914214 2.388858,5.162941 2.734634,5.347759 3.109816,5.46157 3.5,5.5 3.890182,5.461569 4.265364,5.347759 4.611141,5.162941 4.914214,4.914215 5.162941,4.611141 5.347759,4.265365 5.46157,3.890182 5.5,3.5 5.461569,3.109816 5.347759,2.734634 5.162941,2.388858 4.914215,2.085784 4.611141,1.837059 4.265365,1.65224 3.890182,1.538429 3.499999,1.5" style="fill: black" />
    <polygon slic3r:type="hole" points="125.109816,1.538429 124.734631,1.65224 124.388856,1.837059 124.085784,2.085783 123.837056,2.388857 123.65224,2.734634 123.538432,3.109816 123.5,3.5 123.538432,3.890182 123.652239,4.265364 123.837056,4.611141 124.085784,4.914215 124.388856,5.162941 124.734632,5.347759 125.109816,5.46157 125.5,5.5 125.890184,5.46157 126.265368,5.347758 126.611144,5.162941 126.914215,4.914215 127.162944,4.611141 127.34776,4.265364 127.461567,3.890182 127.499999,3.5 127.461567,3.109816 127.34776,2.734634 127.162943,2.388857 126.914216,2.085784 126.611144,1.837058 126.265367,1.652239 125.890183,1.538429 125.5,1.5" style="fill: black" />
  </g>
  <g id="layer3" slic3r:z="1.1e-06">
    <polygon slic3r:type="contour" points="129,129 0,129 0,0 129,0" style="fill: white" />
    <polygon slic3r:type="hole" points="3.109816,123.538432 2.734634,123.65224 2.388858,123.837055 2.085783,124.085784 1.837059,124.388855 1.65224,124.734632 1.538429,125.109816 1.5,125.5 1.538429,125.890184 1.652239,126.265368 1.837059,126.611144 2.085783,126.914215 2.388858,127.162944 2.734634,127.34776 3.109817,127.461568 3.5,127.5 3.890182,127.461568 4.265364,127.34776 4.61114,127.162944 4.914215,126.914215 5.16294,126.611144 5.347759,126.265368 5.46157,125.890184 5.5,125.499999 5.46157,125.109815 5.347759,124.734632 5.162941,124.388856 4.914215,124.085784 4.611141,123.837056 4.265365,123.652239 3.890181,123.538432 3.499999,123.5" style="fill: black" />
    <polygon slic3r:type="hole" points="125.109815,123.538432 124.734632,123.65224 124.388856,123.837055 124.085784,124.085784 123.837056,124.388855 123.65224,124.734631 123.538432,125.109816 123.5,125.5 123.538432,125.890184 123.65224,126.265367 123.837055,126.611143 124.085784,126.914216 124.388855,127.162943 124.734631,127.347759 125.109816,127.461568 125.5,127.5 125.890184,127.461568 126.265367,127.34776 126.611143,127.162944 126.914216,126.914216 127.162943,126.611144 127.347759,126.265368 127.461568,125.890183 127.5,125.499999 127.461568,125.109815 127.34776,124.734632 127.162944,124.388856 126.914216,124.085784 126.611144,123.837056 126.265368,123.65224 125.890183,123.538432 125.499999,123.5" style="fill: black" />
    <polygon slic3r:type="hole" points="125.109815,1.538429 124.734632,1.652239 124.388855,1.837059 124.085784,2.085783 123.837056,2.388858 123.652239,2.734634 123.538432,3.109817 123.5,3.5 123.538432,3.890182 123.65224,4.265364 123.837056,4.61114 124.085784,4.914215 124.388855,5.16294 124.734632,5.347759 125.109816,5.46157 125.5,5.5 125.890184,5.46157 126.265368,5.347759 126.611143,5.162941 126.914216,4.914215 127.162944,4.611141 127.34776,4.265365 127.461568,3.890181 127.5,3.499999 127.461567,3.109816 127.34776,2.734634 127.162944,2.388858 126.914215,2.085783 126.611144,1.837059 126.265368,1.65224 125.890184,1.538429 125.499999,1.5" style="fill: black" />
    <polygon slic3r:type="hole" points="3.109817,1.538428 2.734634,1.652239 2.388858,1.837059 2.085784,2.085784 1.837058,2.388858 1.65224,2.734633 1.538429,3.109816 1.5,3.499999 1.538429,3.890181 1.65224,4.265365 1.837058,4.61114 2.085784,4.914215 2.388858,5.162941 2.734633,5.347758 3.109816,5.461569 3.499999,5.5 3.890181,5.46157 4.265365,5.347759 4.611141,5.162941 4.914215,4.914215 5.16294,4.611141 5.347758,4.265365 5.461569,3.890182 5.5,3.5 5.46157,3.109817 5.347759,2.734634 5.162941,2.388858 4.914215,2.085784 4.61114,1.837058 4.265365,1.65224 3.890182,1.538429 3.5,1.5" style="fill: black" />
  </g>
  <g id="layer4" slic3r:z="1.4e-06">
    <polygon slic3r:type="contour" points="129,129 0,129 0,0 129,0" style="fill: white" />
    <polygon slic3r:type="hole" points="125.109816,123.538432 124.734632,123.652239 124.388856,123.837055 124.085783,124.085784 123.837055,124.388856 123.65224,124.734631 123.538432,125.109816 123.499999,125.5 123.538432,125.890184 123.652239,126.265367 123.837055,126.611143 124.085784,126.914216 124.388856,127.162944 124.734631,127.347759 125.109816,127.461568 125.5,127.5 125.890184,127.461568 126.265367,127.34776 126.611143,127.162944 126.914216,126.914215 127.162944,126.611143 127.347759,126.265368 127.461568,125.890184 127.5,125.499999 127.461568,125.109816 127.34776,124.734632 127.162944,124.388856 126.914215,124.085783 126.611143,123.837055 126.265368,123.65224 125.890184,123.538432 125.499999,123.499999" style="fill: black" />
    <polygon slic3r:type="hole" points="3.109816,123.538432 2.734633,123.65224 2.388858,123.837055 2.085783,124.085784 1.837058,124.388856 1.65224,124.734632 1.538429,125.109815 1.5,125.5 1.538428,125.890184 1.65224,126.265368 1.837058,126.611143 2.085784,126.914216 2.388857,127.162943 2.734633,127.347759 3.109817,127.461568 3.5,127.5 3.890181,127.461568 4.265365,127.34776 4.61114,127.162944 4.914215,126.914215 5.162941,126.611143 5.347759,126.265368 5.46157,125.890184 5.5,125.499999 5.46157,125.109816 5.347759,124.734632 5.162941,124.388856 4.914214,124.085783 4.611141,123.837056 4.265364,123.652239 3.890181,123.538431 3.5,123.499999" style="fill: black" />
    <polygon slic3r:type="hole" points="125.109816,1.538428 124.734632,1.65224 124.388856,1.837058 124.085783,2.085784 123.837056,2.388857 123.65224,2.734633 123.538432,3.109817 123.5,3.5 123.538431,3.890181 123.65224,4.265365 123.837055,4.61114 124.085784,4.914215 124.388856,5.162941 124.734632,5.347759 125.109815,5.46157 125.5,5.5 125.890184,5.46157 126.265368,5.347759 126.611143,5.162941 126.914216,4.914214 127.162943,4.611141 127.34776,4.265364 127.461568,3.890181 127.5,3.5 127.461568,3.109816 127.347759,2.734633 127.162944,2.388858 126.914215,2.085783 126.611143,1.837058 126.265368,1.65224 125.890184,1.538429 125.499999,1.5" style="fill: black" />
    <polygon slic3r:type="hole" points="3.109816,1.538429 2.734634,1.65224 2.388857,1.837059 2.085783,2.085784 1.837059,2.388857 1.65224,2.734634 1.538429,3.109817 1.499999,3.5 1.538428,3.890181 1.652239,4.265364 1.837059,4.611141 2.085784,4.914215 2.388858,5.162941 2.734634,5.347759 3.109817,5.46157 3.5,5.5 3.890181,5.46157 4.265364,5.347759 4.611141,5.16294 4.914215,4.914214 5.162941,4.61114 5.347759,4.265364 5.46157,3.890181 5.5,3.5 5.46157,3.109816 5.347759,2.734634 5.16294,2.388857 4.914214,2.085783 4.611141,1.837059 4.265364,1.652239 3.890182,1.538429 3.499999,1.5" style="fill: black" />
  </g>
  <g id="layer5" slic3r:z="1.7e-06">
    <polygon slic3r:type="contour" points="129,129 0,129 0,0 129,0" style="fill: white" />
    <polygon slic3r:type="hole" points="125.109815,123.538432 124.734631,123.65224 124.388856,123.837056 124.085784,124.085783 123.837056,124.388855 123.652239,124.734632 123.538432,125.109816 123.5,125.5 123.538432,125.890184 123.65224,126.265368 123.837056,126.611144 124.085783,126.914215 124.388855,127.162943 124.734632,127.34776 125.109816,127.461568 125.5,127.5 125.890184,127.461567 126.265368,127.347759 126.611144,127.162943 126.914215,126.914216 127.162943,126.611144 127.34776,126.265367 127.461568,125.890183 127.5,125.499999 127.461567,125.109815 127.347759,124.734631 127.162943,124.388856 126.914216,124.085784 126.611144,123.837056 126.265367,123.652239 125.890183,123.538432 125.499999,123.5" style="fill: black" />
    <polygon slic3r:type="hole" points="3.109817,123.538432 2.734634,123.652239 2.388857,123.837056 2.085784,124.085783 1.837059,124.388856 1.652239,124.734632 1.538429,125.109815 1.5,125.5 1.538428,125.890183 1.65224,126.265368 1.837059,126.611144 2.085783,126.914215 2.388857,127.162943 2.734634,127.34776 3.109817,127.461568 3.5,127.499999 3.890182,127.461568 4.265364,127.34776 4.611141,127.162943 4.914214,126.914216 5.16294,126.611144 5.347759,126.265367 5.461569,125.890184 5.5,125.5 5.46157,125.109816 5.347759,124.734632 5.16294,124.388855 4.914215,124.085784 4.611141,123.837056 4.265365,123.65224 3.890182,123.538432 3.499999,123.5" style="fill: black" />
    <polygon slic3r:type="hole" points="3.109817,1.538428 2.734634,1.65224 2.388857,1.837059 2.085783,2.085784 1.837058,2.388858 1.65224,2.734634 1.538429,3.109816 1.5,3.499999 1.538428,3.890181 1.652239,4.265364 1.837059,4.611141 2.085784,4.914215 2.388858,5.162941 2.734634,5.347759 3.109816,5.461569 3.499999,5.5 3.890181,5.46157 4.265365,5.347759 4.611141,5.16294 4.914215,4.914214 5.162941,4.611141 5.347759,4.265364 5.461569,3.890182 5.5,3.5 5.46157,3.109817 5.347759,2.734634 5.16294,2.388857 4.914215,2.085783 4.61114,1.837058 4.265364,1.65224 3.890182,1.538429 3.499999,1.5" style="fill: black" />
    <polygon slic3r:type="hole" points="125.109816,1.538428 124.734632,1.65224 124.388856,1.837059 124.085784,2.085783 123.837056,2.388857 123.65224,2.734634 123.538432,3.109817 123.5,3.5 123.538432,3.890182 123.652239,4.265364 123.837056,4.611141 124.085783,4.914214 124.388855,5.16294 124.734632,5.347759 125.109815,5.461569 125.499999,5.5 125.890183,5.46157 126.265367,5.347759 126.611144,5.16294 126.914215,4.914215 127.162943,4.611141 127.34776,4.265365 127.461568,3.890182 127.5,3.499999 127.461568,3.109817 127.34776,2.734634 127.162943,2.388857 126.914216,2.085784 126.611143,1.837059 126.265367,1.652239 125.890184,1.538429 125.499999,1.5" style="fill: black" />
  </g>
  <g id="layer6" slic3r:z="2e-06">
    <polygon slic3r:type="contour" points="129,129 0,129 0,0 129,0" style="fill: white" />
    <polygon slic3r:type="hole" points="125.109816,123.538431 124.734632,123.652239 124.388856,123.837056 124.085783,124.085784 123.837056,124.388856 123.65224,124.734631 123.538431,125.109816 123.5,125.5 123.538431,125.890183 123.652239,126.265367 123.837056,126.611144 124.085784,126.914216 124.388856,127.162944 124.734631,127.34776 125.109816,127.461568 125.5,127.5 125.890183,127.461568 126.265367,127.34776 126.611144,127.162944 126.914216,126.914215 127.162944,126.611144 127.34776,126.265368 127.461568,125.890183 127.5,125.5 127.461568,125.109816 127.34776,124.734632 127.162944,124.388856 126.914215,124.085783 126.611144,123.837056 126.265368,123.65224 125.890183,123.538431 125.5,123.5" style="fill: black" />
    <polygon slic3r:type="hole" points="3.109817,123.538432 2.734634,123.652239 2.388858,123.837055 2.085783,124.085784 1.837059,124.388855 1.65224,124.734632 1.538429,125.109816 1.5,125.5 1.538428,125.890184 1.65224,126.265368 1.837058,126.611143 2.085783,126.914215 2.388858,127.162944 2.734634,127.34776 3.109817,127.461568 3.499999,127.5 3.890182,127.461568 4.265364,127.34776 4.61114,127.162944 4.914215,126.914215 5.162941,126.611143 5.347759,126.265368 5.46157,125.890184 5.5,125.5 5.46157,125.109816 5.347759,124.734632 5.162941,124.388856 4.914215,124.085784 4.611141,123.837056 4.265364,123.652239 3.890182,123.538431 3.499999,123.5" style="fill: black" />
    <polygon slic3r:type="hole" points="125.109816,1.538428 124.734632,1.65224 124.388856,1.837058 124.085784,2.085783 123.837056,2.388858 123.652239,2.734634 123.538431,3.109817 123.5,3.499999 123.538432,3.890182 123.652239,4.265364 123.837055,4.61114 124.085784,4.914215 124.388856,5.162941 124.734632,5.347759 125.109816,5.46157 125.499999,5.5 125.890183,5.46157 126.265368,5.347759 126.611143,5.162941 126.914215,4.914215 127.162944,4.611141 127.34776,4.265364 127.461568,3.890182 127.5,3.499999 127.461568,3.109817 127.34776,2.734634 127.162944,2.388858 126.914215,2.085783 126.611144,1.837059 126.265368,1.65224 125.890184,1.538429 125.499999,1.5" style="fill: black" />
    <polygon slic3r:type="hole" points="3.109817,1.538429 2.734634,1.652239 2.388857,1.837059 2.085784,2.085784 1.837059,2.388858 1.652239,2.734634 1.538429,3.109817 1.5,3.499999 1.538429,3.890182 1.652239,4.265365 1.837059,4.611141 2.085783,4.914214 2.388858,5.162941 2.734634,5.347759 3.109817,5.46157 3.499999,5.5 3.890182,5.46157 4.265365,5.347759 4.611141,5.16294 4.914214,4.914215 5.162941,4.611141 5.347758,4.265365 5.46157,3.890182 5.5,3.5 5.46157,3.109817 5.347759,2.734634 5.16294,2.388857 4.914215,2.085784 4.611141,1.837059 4.265365,1.65224 3.890182,1.538429 3.499999,1.5" style="fill: black" />
  </g>
  <g id="layer7" slic3r:z="2.3e-06">
    <polygon slic3r:type="contour" points="129,129 0,129 0,0 129,0" style="fill: white" />
    <polygon slic3r:type="hole" points="3.109817,123.538431 2.734634,123.65224 2.388858,123.837056 2.085784,124.085784 1.837058,124.388856 1.652239,124.734632 1.538429,125.109816 1.5,125.5 1.538429,125.890184 1.65224,126.265368 1.837059,126.611144 2.085784,126.914216 2.388857,127.162943 2.734634,127.34776 3.109817,127.461568 3.499999,127.5 3.890182,127.461568 4.265365,127.34776 4.611141,127.162944 4.914215,126.914216 5.162941,126.611143 5.347759,126.265367 5.46157,125.890184 5.5,125.5 5.461569,125.109815 5.347759,124.734631 5.162941,124.388856 4.914215,124.085784 4.611141,123.837056 4.265365,123.652239 3.890182,123.538432 3.5,123.5" style="fill: black" />
    <polygon slic3r:type="hole" points="125.109815,123.538432 124.734632,123.65224 124.388855,123.837056 124.085783,124.085784 123.837056,124.388855 123.65224,124.734632 123.538432,125.109815 123.5,125.5 123.538432,125.890184 123.65224,126.265367 123.837056,126.611144 124.085784,126.914216 124.388855,127.162943 124.734632,127.34776 125.109815,127.461567 125.5,127.499999 125.890184,127.461568 126.265367,127.34776 126.611144,127.162943 126.914216,126.914215 127.162943,126.611144 127.34776,126.265368 127.461567,125.890184 127.5,125.5 127.461568,125.109815 127.34776,124.734632 127.162943,124.388855 126.914215,124.085783 126.611144,123.837056 126.265368,123.65224 125.890184,123.538432 125.5,123.5" style="fill: black" />
    <polygon slic3r:type="hole" points="125.109815,1.538429 124.734631,1.65224 124.388855,1.837059 124.085783,2.085784 123.837056,2.388857 123.652239,2.734634 123.538432,3.109817 123.5,3.499999 123.538432,3.890182 123.65224,4.265365 123.837056,4.611141 124.085783,4.914215 124.388856,5.162941 124.734632,5.347759 125.109816,5.46157 125.5,5.5 125.890184,5.461569 126.265368,5.347759 126.611144,5.162941 126.914216,4.914215 127.162943,4.611141 127.34776,4.265365 127.461568,3.890182 127.499999,3.5 127.461568,3.109817 127.34776,2.734634 127.162944,2.388858 126.914215,2.085784 126.611143,1.837058 126.265367,1.652239 125.890184,1.538429 125.499999,1.5" style="fill: black" />
    <polygon slic3r:type="hole" points="3.109816,1.538429 2.734634,1.65224 2.388858,1.837059 2.085784,2.085783 1.837059,2.388857 1.652239,2.734634 1.538429,3.109817 1.5,3.5 1.538429,3.890182 1.65224,4.265364 1.837059,4.611141 2.085783,4.914214 2.388857,5.16294 2.734634,5.347759 3.109817,5.46157 3.5,5.5 3.890182,5.46157 4.265364,5.347759 4.61114,5.162941 4.914214,4.914215 5.16294,4.611141 5.347759,4.265364 5.46157,3.890181 5.5,3.5 5.46157,3.109816 5.347759,2.734634 5.162941,2.388858 4.914215,2.085784 4.611141,1.837059 4.265364,1.652239 3.890181,1.538429 3.499999,1.5" style="fill: black" />
  </g>
  <g id="layer8" slic3r:z="2.6e-06">
    <polygon slic3r:type="contour" points="129,129 0,129 0,0 129,0" style="fill: white" />
    <polygon slic3r:type="hole" points="3.109816,123.538432 2.734634,123.65224 2.388857,123.837056 2.085784,124.085784 1.837059,124.388855 1.65224,124.734632 1.538428,125.109816 1.5,125.5 1.538429,125.890184 1.65224,126.265367 1.837058,126.611143 2.085784,126.914216 2.388858,127.162944 2.734634,127.34776 3.109816,127.461568 3.5,127.5 3.890182,127.461568 4.265364,127.34776 4.611141,127.162943 4.914214,126.914216 5.162941,126.611144 5.347759,126.265367 5.46157,125.890183 5.5,125.499999 5.46157,125.109815 5.347759,124.734632 5.162941,124.388856 4.914214,124.085783 4.611141,123.837056 4.265364,123.652239 3.890182,123.538431 3.499999,123.5" style="fill: black" />
    <polygon slic3r:type="hole" points="125.109816,123.538432 124.734632,123.652239 124.388855,123.837056 124.085784,124.085784 123.837056,124.388855 123.65224,124.734631 123.538432,125.109815 123.5,125.5 123.538432,125.890184 123.652239,126.265367 123.837056,126.611144 124.085784,126.914216 124.388855,127.162943 124.734631,127.347759 125.109815,127.461568 125.5,127.5 125.890184,127.461568 126.265367,127.34776 126.611144,127.162943 126.914216,126.914216 127.162943,126.611144 127.347759,126.265368 127.461568,125.890184 127.5,125.499999 127.461568,125.109816 127.34776,124.734632 127.162943,124.388855 126.914216,124.085784 126.611144,123.837056 126.265368,123.65224 125.890184,123.538432 125.499999,123.5" style="fill: black" />
    <polygon slic3r:type="hole" points="125.109815,1.538429 124.734632,1.65224 124.388856,1.837058 124.085783,2.085784 123.837056,2.388858 123.652239,2.734634 123.538432,3.109816 123.499999,3.5 123.538432,3.890182 123.652239,4.265364 123.837056,4.611141 124.085784,4.914214 124.388856,5.162941 124.734632,5.347759 125.109816,5.46157 125.5,5.5 125.890184,5.46157 126.265367,5.347759 126.611143,5.162941 126.914216,4.914214 127.162943,4.611141 127.34776,4.265365 127.461568,3.890182 127.5,3.499999 127.461567,3.109816 127.34776,2.734634 127.162943,2.388857 126.914216,2.085784 126.611144,1.837059 126.265368,1.65224 125.890183,1.538428 125.499999,1.5" style="fill: black" />
    <polygon slic3r:type="hole" points="3.109816,1.538429 2.734634,1.65224 2.388858,1.837058 2.085784,2.085784 1.837059,2.388857 1.65224,2.734634 1.538428,3.109817 1.5,3.499999 1.538429,3.890181 1.65224,4.265364 1.837058,4.61114 2.085784,4.914215 2.388857,5.16294 2.734634,5.347759 3.109817,5.46157 3.5,5.5 3.890181,5.46157 4.265364,5.347759 4.61114,5.162941 4.914214,4.914215 5.162941,4.61114 5.347759,4.265364 5.46157,3.890181 5.5,3.499999 5.46157,3.109816 5.347759,2.734634 5.162941,2.388858 4.914215,2.085784 4.611141,1.837059 4.265365,1.65224 3.890181,1.538428 3.499999,1.5" style="fill: black" />
  </g>
  <g id="layer9" slic3r:z="2.9e-06">
    <polygon slic3r:type="contour" points="129,129 0,129 0,0 129,0" style="fill: white" />
    <polygon slic3r:type="hole" points="125.109816,123.538432 124.734632,123.652239 124.388856,123.837056 124.085784,124.085783 123.837056,124.388855 123.652239,124.734632 123.538432,125.109815 123.5,125.499999 123.538432,125.890183 123.652239,126.265367 123.837056,126.611144 124.085783,126.914215 124.388855,127.162943 124.734632,127.34776 125.109815,127.461568 125.499999,127.5 125.890183,127.461568 126.265367,127.34776 126.611144,127.162944 126.914215,126.914216 127.162943,126.611144 127.34776,126.265367 127.461568,125.890184 127.5,125.5 127.461568,125.109816 127.34776,124.734632 127.162944,124.388856 126.914216,124.085784 126.611144,123.837056 126.265367,123.652239 125.890184,123.538432 125.5,123.499999" style="fill: black" />
    <polygon slic3r:type="hole" points="3.109817,123.538431 2.734633,123.65224 2.388858,123.837055 2.085784,124.085783 1.837059,124.388856 1.65224,124.734631 1.538428,125.109816 1.5,125.5 1.538429,125.890184 1.65224,126.265368 1.837059,126.611144 2.085784,126.914216 2.388858,127.162944 2.734633,127.347759 3.109816,127.461567 3.499999,127.5 3.890181,127.461568 4.265365,127.347759 4.61114,127.162944 4.914215,126.914216 5.16294,126.611144 5.347758,126.265368 5.46157,125.890183 5.5,125.5 5.46157,125.109815 5.347758,124.734631 5.16294,124.388855 4.914215,124.085784 4.61114,123.837055 4.265365,123.65224 3.890182,123.538432 3.5,123.499999" style="fill: black" />
    <polygon slic3r:type="hole" points="125.109816,1.538429 124.734631,1.65224 124.388856,1.837059 124.085784,2.085784 123.837056,2.388858 123.65224,2.734634 123.538432,3.109816 123.5,3.499999 123.538432,3.890181 123.65224,4.265365 123.837055,4.61114 124.085783,4.914215 124.388856,5.162941 124.734631,5.347758 125.109816,5.46157 125.499999,5.5 125.890184,5.46157 126.265368,5.347758 126.611144,5.16294 126.914215,4.914215 127.162944,4.61114 127.34776,4.265365 127.461568,3.890181 127.5,3.5 127.461568,3.109817 127.347759,2.734633 127.162944,2.388858 126.914216,2.085784 126.611143,1.837058 126.265368,1.65224 125.890183,1.538428 125.499999,1.5" style="fill: black" />
    <polygon slic3r:type="hole" points="3.109817,1.538429 2.734634,1.65224 2.388858,1.837059 2.085784,2.085783 1.837059,2.388857 1.652239,2.734634 1.538429,3.109816 1.499999,3.5 1.538429,3.890181 1.65224,4.265364 1.837059,4.611141 2.085783,4.914214 2.388858,5.162941 2.734633,5.347759 3.109816,5.461569 3.5,5.5 3.890182,5.461569 4.265364,5.347759 4.611141,5.16294 4.914214,4.914215 5.162941,4.61114 5.347759,4.265365 5.46157,3.890182 5.5,3.5 5.461569,3.109816 5.347759,2.734634 5.16294,2.388857 4.914215,2.085784 4.611141,1.837059 4.265364,1.652239 3.890181,1.538429 3.5,1.5" style="fill: black" />
  </g>
</svg>
