<?xml version="1.0" encoding="UTF-8" standalone="yes"?>
<!DOCTYPE svg PUBLIC "-//W3C//DTD SVG 1.0//EN" "http://www.w3.org/TR/2001/REC-SVG-20010904/DTD/svg10.dtd">
<svg width="132" height="132" xmlns="http://www.w3.org/2000/svg" xmlns:svg="http://www.w3.org/2000/svg" xmlns:xlink="http://www.w3.org/1999/xlink" xmlns:slic3r="http://slic3r.org/namespaces/slic3r">
  <!-- 
  Generated using Slic3r 1.3.1-dev
  http://slic3r.org/
   -->
  <g id="layer0" slic3r:z="1.75e-07">
    <polygon slic3r:type="contour" points="132,132 0,132 0,0 132,0" style="fill: white" />
    <polygon slic3r:type="hole" points="4.109816,125.538432 3.734633,125.65224 3.388858,125.837056 3.085784,126.085784 2.837059,126.388855 2.65224,126.734631 2.538429,127.109815 2.5,127.499999 2.538429,127.890184 2.652239,128.265367 2.837058,128.611143 3.085784,128.914215 3.388858,129.162935 3.734634,129.34776 4.109817,129.461576 4.5,129.5 4.890181,129.461576 5.265364,129.34776 5.611141,129.162935 5.914214,128.914216 6.16294,128.611144 6.347759,128.265368 6.46157,127.890184 6.5,127.499999 6.46157,127.109815 6.347759,126.734632 6.16294,126.388856 5.914215,126.085784 5.611141,125.837056 5.265364,125.65224 4.890181,125.538432 4.499999,125.5" style="fill: black" />
    <polygon slic3r:type="hole" points="127.109815,125.538432 126.734632,125.652239 126.388855,125.837056 126.085784,126.085784 125.837056,126.388855 125.65224,126.734632 125.538432,127.109815 125.5,127.5 125.538432,127.890184 125.652239,128.265367 125.837056,128.611144 126.085784,128.914216 126.388856,129.162935 126.734632,129.34776 127.109815,129.461576 127.499999,129.5 127.890184,129.461576 128.265367,129.34776 128.611144,129.162935 128.914216,128.914216 129.162936,128.611144 129.34776,128.265367 129.461576,127.890184 129.5,127.5 129.461576,127.109816 129.34776,126.734632 129.162935,126.388855 128.914216,126.085784 128.611144,125.837056 128.265367,125.65224 127.890184,125.538432 127.5,125.5" style="fill: black" />
    <polygon slic3r:type="hole" points="127.109815,2.538429 126.734632,2.652239 126.388856,2.837058 126.085784,3.085784 125.837056,3.388858 125.652239,3.734634 125.538432,4.109816 125.5,4.5 125.538432,4.890182 125.652239,5.265364 125.837056,5.611141 126.085784,5.914215 126.388855,6.16294 126.734631,6.347759 127.109815,6.46157 127.5,6.5 127.890184,6.46157 128.265367,6.347759 128.611144,6.16294 128.914215,5.914215 129.162935,5.611141 129.34776,5.265364 129.461576,4.890181 129.5,4.5 129.461576,4.109817 129.34776,3.734634 129.162936,3.388858 128.914215,3.085785 128.611144,2.837059 128.265368,2.65224 127.890184,2.538429 127.5,2.5" style="fill: black" />
    <polygon slic3r:type="hole" points="4.109816,2.538429 3.734634,2.652239 3.388858,2.837059 3.085785,3.085784 2.837059,3.388858 2.65224,3.734633 2.538429,4.109817 2.5,4.499999 2.538429,4.890182 2.652239,5.265365 2.837058,5.61114 3.085784,5.914214 3.388857,6.16294 3.734633,6.347759 4.109817,6.46157 4.5,6.5 4.890182,6.46157 5.265365,6.347759 5.611141,6.162941 5.914214,5.914215 6.162941,5.61114 6.347758,5.265365 6.46157,4.890181 6.5,4.499999 6.46157,4.109816 6.347759,3.734634 6.162941,3.388858 5.914215,3.085785 5.611141,2.837059 5.265365,2.65224 4.890181,2.538428 4.5,2.5" style="fill: black" />
  </g>
  <g id="layer1" slic3r:z="5e-07">
    <polygon slic3r:type="contour" points="132,132 0,132 0,0 132,0" style="fill: white" />
    <polygon slic3r:type="hole" points="4.109817,125.538432 3.734634,125.65224 3.388858,125.837055 3.085785,126.085783 2.837059,126.388855 2.65224,126.734632 2.538428,127.109816 2.5,127.5 2.538429,127.890184 2.652239,128.265367 2.837059,128.611144 3.085785,128.914216 3.388857,129.162935 3.734634,129.34776 4.109817,129.461576 4.5,129.5 4.890182,129.461576 5.265364,129.34776 5.61114,129.162936 5.914215,128.914215 6.162941,128.611143 6.347759,128.265367 6.46157,127.890184 6.5,127.5 6.46157,127.109815 6.347759,126.734632 6.162941,126.388856 5.914215,126.085784 5.611141,125.837056 5.265365,125.65224 4.890182,125.538432 4.5,125.5" style="fill: black" />
    <polygon slic3r:type="hole" points="127.109815,125.538432 126.734632,125.65224 126.388856,125.837056 126.085784,126.085783 125.837056,126.388855 125.652239,126.734632 125.538432,127.109816 125.5,127.499999 125.538432,127.890184 125.65224,128.265368 125.837056,128.611143 126.085783,128.914215 126.388855,129.162935 126.734632,129.34776 127.109816,129.461576 127.5,129.499999 127.890184,129.461576 128.265368,129.34776 128.611143,129.162936 128.914215,128.914216 129.162935,128.611144 129.34776,128.265368 129.461576,127.890183 129.499999,127.499999 129.461576,127.109815 129.34776,126.734632 129.162936,126.388856 128.914216,126.085784 128.611144,125.837056 128.265367,125.652239 127.890183,125.538432 127.5,125.5" style="fill: black" />
    <polygon slic3r:type="hole" points="4.109816,2.538429 3.734634,2.652239 3.388857,2.837059 3.085785,3.085784 2.837059,3.388857 2.652239,3.734634 2.538429,4.109817 2.5,4.5 2.538429,4.890182 2.652239,5.265364 2.837059,5.611141 3.085785,5.914215 3.388858,6.162941 3.734634,6.347759 4.109817,6.46157 4.5,6.5 4.890182,6.461569 5.265364,6.347759 5.61114,6.162941 5.914215,5.914214 6.162941,5.61114 6.347759,5.265364 6.46157,4.890182 6.5,4.499999 6.461569,4.109816 6.347759,3.734634 6.162941,3.388858 5.914215,3.085784 5.611141,2.837059 5.265364,2.652239 4.890182,2.538429 4.499999,2.5" style="fill: black" />
    <polygon slic3r:type="hole" points="127.109815,2.538429 126.734632,2.652239 126.388855,2.837059 126.085783,3.085785 125.837056,3.388857 125.65224,3.734633 125.538432,4.109817 125.5,4.499999 125.538432,4.890181 125.65224,5.265364 125.837055,5.61114 126.085784,5.914215 126.388856,6.162941 126.734632,6.347759 127.109816,6.46157 127.499999,6.5 127.890184,6.46157 128.265367,6.347759 128.611143,6.162941 128.914215,5.914215 129.162935,5.611141 129.34776,5.265365 129.461575,4.890182 129.5,4.499999 129.461576,4.109816 129.34776,3.734634 129.162936,3.388858 128.914216,3.085785 128.611144,2.837059 128.265367,2.65224 127.890183,2.538428 127.5,2.5" style="fill: black" />
  </g>
  <g id="layer2" slic3r:z="8e-07">
    <polygon slic3r:type="contour" points="132,132 0,132 0,0 132,0" style="fill: white" />
    <polygon slic3r:type="hole" points="127.109815,125.538432 126.734632,125.65224 126.388856,125.837055 126.085784,126.085784 125.837055,126.388856 125.65224,126.734631 125.538431,127.109816 125.5,127.5 125.538432,127.890184 125.65224,128.265368 125.837055,128.611143 126.085784,128.914216 126.388856,129.162936 126.734632,129.34776 127.109815,129.461576 127.499999,129.5 127.890184,129.461576 128.265368,129.34776 128.611144,129.162936 128.914216,128.914215 129.162936,128.611143 129.34776,128.265367 129.461576,127.890184 129.5,127.5 129.461576,127.109815 129.34776,126.734631 129.162936,126.388855 128.914215,126.085783 128.611143,125.837055 128.265368,125.65224 127.890183,125.538431 127.5,125.5" style="fill: black" />
    <polygon slic3r:type="hole" points="4.109816,125.538432 3.734633,125.65224 3.388858,125.837055 3.085784,126.085784 2.837058,126.388856 2.652239,126.734632 2.538429,127.109815 2.5,127.499999 2.538429,127.890184 2.652239,128.265367 2.837059,128.611144 3.085784,128.914215 3.388858,129.162936 3.734634,129.34776 4.109817,129.461576 4.5,129.5 4.890182,129.461576 5.265365,129.34776 5.611141,129.162935 5.914214,128.914216 6.16294,128.611144 6.347759,128.265367 6.46157,127.890184 6.5,127.5 6.46157,127.109816 6.347759,126.734632 6.16294,126.388855 5.914215,126.085784 5.61114,125.837055 5.265365,125.65224 4.890181,125.538431 4.499999,125.5" style="fill: black" />
    <polygon slic3r:type="hole" points="4.109816,2.538429 3.734634,2.652239 3.388857,2.837059 3.085784,3.085785 2.837059,3.388857 2.652239,3.734634 2.538429,4.109816 2.5,4.5 2.538429,4.890182 2.652239,5.265364 2.837059,5.611141 3.085784,5.914214 3.388857,6.16294 3.734634,6.347759 4.109816,6.461569 4.5,6.5 4.890182,6.461569 5.265364,6.347759 5.611141,6.16294 5.914215,5.914215 6.162941,5.61114 6.347759,5.265364 6.461569,4.890182 6.499999,4.5 6.46157,4.109816 6.347759,3.734634 6.16294,3.388857 5.914215,3.085785 5.611141,2.837059 5.265364,2.652239 4.890182,2.538429 4.499999,2.5" style="fill: black" />
    <polygon slic3r:type="hole" points="127.109816,2.538429 126.734632,2.652239 126.388855,2.837059 126.085784,3.085784 125.837056,3.388858 125.652239,3.734634 125.538431,4.109817 125.5,4.5 125.538432,4.890182 125.65224,5.265365 125.837055,5.611141 126.085784,5.914215 126.388855,6.16294 126.734632,6.347759 127.109815,6.46157 127.499999,6.5 127.890184,6.46157 128.265367,6.347759 128.611144,6.16294 128.914216,5.914215 129.162936,5.61114 129.34776,5.265364 129.461576,4.890181 129.5,4.499999 129.461576,4.109816 129.34776,3.734633 129.162935,3.388857 128.914215,3.085784 128.611143,2.837058 128.265367,2.652239 127.890184,2.538429 127.5,2.5" style="fill: black" />
  </g>
  <g id="layer3" slic3r:z="1.1e-06">
    <polygon slic3r:type="contour" points="132,132 0,132 0,0 132,0" style="fill: white" />
    <polygon slic3r:type="hole" points="127.109816,125.538432 126.734632,125.65224 126.388856,125.837056 126.085784,126.085783 125.837056,126.388855 125.65224,126.734632 125.538432,127.109816 125.5,127.5 125.538432,127.890183 125.65224,128.265367 125.837056,128.611143 126.085784,128.914216 126.388855,129.162935 126.734632,129.34776 127.109816,129.461576 127.499999,129.5 127.890183,129.461576 128.265367,129.34776 128.611144,129.162935 128.914216,128.914216 129.162935,128.611144 129.34776,128.265368 129.461576,127.890184 129.5,127.5 129.461576,127.109816 129.34776,126.734632 129.162935,126.388855 128.914216,126.085784 128.611144,125.837056 128.265367,125.65224 127.890184,125.538432 127.499999,125.5" style="fill: black" />
    <polygon slic3r:type="hole" points="4.109817,125.538432 3.734634,125.652239 3.388857,125.837056 3.085785,126.085783 2.837059,126.388855 2.65224,126.734631 2.538429,127.109816 2.5,127.5 2.538429,127.890184 2.65224,128.265368 2.837058,128.611143 3.085785,128.914215 3.388858,129.162936 3.734633,129.347759 4.109817,129.461576 4.499999,129.5 4.890181,129.461576 5.265365,129.34776 5.61114,129.162936 5.914214,128.914216 6.162941,128.611143 6.347759,128.265367 6.46157,127.890183 6.499999,127.499999 6.46157,127.109816 6.347758,126.734631 6.162941,126.388856 5.914215,126.085784 5.611141,125.837056 5.265364,125.652239 4.890181,125.538432 4.499999,125.5" style="fill: black" />
    <polygon slic3r:type="hole" points="4.109817,2.538429 3.734633,2.65224 3.388857,2.837059 3.085784,3.085785 2.837058,3.388858 2.65224,3.734634 2.538429,4.109817 2.5,4.499999 2.538429,4.890181 2.65224,5.265365 2.837059,5.611141 3.085785,5.914215 3.388858,6.162941 3.734633,6.347759 4.109817,6.46157 4.499999,6.5 4.890181,6.46157 5.265365,6.347758 5.611141,6.16294 5.914214,5.914215 6.162941,5.61114 6.347758,5.265365 6.46157,4.890182 6.5,4.499999 6.46157,4.109817 6.347758,3.734633 6.16294,3.388857 5.914215,3.085785 5.611141,2.837058 5.265365,2.65224 4.890182,2.538429 4.5,2.499999" style="fill: black" />
    <polygon slic3r:type="hole" points="127.109815,2.538429 126.734631,2.65224 126.388856,2.837058 126.085783,3.085785 125.837056,3.388857 125.652239,3.734634 125.538432,4.109817 125.5,4.5 125.538432,4.890182 125.652239,5.265364 125.837056,5.611141 126.085783,5.914214 126.388856,6.162941 126.734632,6.347759 127.109816,6.46157 127.5,6.499999 127.890184,6.46157 128.265368,6.347758 128.611143,6.162941 128.914215,5.914215 129.162936,5.611141 129.34776,5.265364 129.461576,4.890181 129.5,4.5 129.461576,4.109817 129.34776,3.734633 129.162936,3.388858 128.914216,3.085785 128.611144,2.837059 128.265368,2.65224 127.890183,2.538429 127.499999,2.5" style="fill: black" />
  </g>
  <g id="layer4" slic3r:z="1.4e-06">
    <polygon slic3r:type="contour" points="132,132 0,132 0,0 132,0" style="fill: white" />
    <polygon slic3r:type="hole" points="4.109816,125.538432 3.734633,125.65224 3.388857,125.837056 3.085784,126.085784 2.837058,126.388856 2.652239,126.734632 2.538428,127.109816 2.5,127.499999 2.538429,127.890183 2.65224,128.265367 2.837059,128.611144 3.085784,128.914216 3.388858,129.162936 3.734634,129.34776 4.109816,129.461575 4.499999,129.5 4.890182,129.461576 5.265365,129.34776 5.61114,129.162936 5.914215,128.914215 6.16294,128.611144 6.347759,128.265367 6.46157,127.890183 6.5,127.499999 6.46157,127.109816 6.347759,126.734632 6.162941,126.388856 5.914215,126.085784 5.61114,125.837055 5.265364,125.652239 4.890182,125.538432 4.499999,125.5" style="fill: black" />
    <polygon slic3r:type="hole" points="127.109816,125.538432 126.734632,125.652239 126.388856,125.837056 126.085784,126.085784 125.837055,126.388856 125.652239,126.734632 125.538432,127.109816 125.5,127.5 125.538432,127.890183 125.65224,128.265367 125.837056,128.611144 126.085784,128.914216 126.388856,129.162936 126.734632,129.34776 127.109815,129.461575 127.499999,129.5 127.890183,129.461576 128.265367,129.34776 128.611143,129.162936 128.914216,128.914216 129.162936,128.611143 129.34776,128.265367 129.461575,127.890184 129.5,127.5 129.461576,127.109816 129.34776,126.734632 129.162936,126.388856 128.914215,126.085784 128.611143,125.837055 128.265367,125.652239 127.890183,125.538432 127.5,125.5" style="fill: black" />
    <polygon slic3r:type="hole" points="127.109816,2.538429 126.734632,2.65224 126.388855,2.837059 126.085784,3.085784 125.837055,3.388858 125.652239,3.734634 125.538431,4.109817 125.5,4.5 125.538432,4.890181 125.65224,5.265365 125.837056,5.61114 126.085784,5.914215 126.388855,6.16294 126.734632,6.347759 127.109816,6.46157 127.5,6.5 127.890183,6.46157 128.265367,6.347759 128.611144,6.162941 128.914215,5.914215 129.162936,5.61114 129.34776,5.265364 129.461576,4.890182 129.5,4.5 129.461576,4.109816 129.34776,3.734633 129.162935,3.388857 128.914215,3.085784 128.611143,2.837058 128.265367,2.652239 127.890183,2.538428 127.5,2.5" style="fill: black" />
    <polygon slic3r:type="hole" points="4.109817,2.538429 3.734634,2.65224 3.388858,2.837058 3.085784,3.085785 2.837058,3.388858 2.65224,3.734633 2.538429,4.109817 2.5,4.5 2.538429,4.890181 2.65224,5.265365 2.837058,5.61114 3.085785,5.914215 3.388858,6.162941 3.734633,6.347758 4.109817,6.46157 4.5,6.5 4.890181,6.46157 5.265365,6.347759 5.611141,6.162941 5.914215,5.914215 6.162941,5.61114 6.347758,5.265365 6.46157,4.890182 6.5,4.499999 6.46157,4.109817 6.347759,3.734634 6.162941,3.388858 5.914214,3.085784 5.61114,2.837058 5.265365,2.65224 4.890182,2.538429 4.499999,2.5" style="fill: black" />
  </g>
  <g id="layer5" slic3r:z="1.7e-06">
    <polygon slic3r:type="contour" points="132,132 0,132 0,0 132,0" style="fill: white" />
    <polygon slic3r:type="hole" points="127.109815,125.538432 126.734632,125.652239 126.388856,125.837055 126.085784,126.085783 125.837056,126.388855 125.65224,126.734632 125.538431,127.109816 125.5,127.5 125.538432,127.890184 125.652239,128.265367 125.837055,128.611143 126.085783,128.914215 126.388855,129.162936 126.734631,129.34776 127.109816,129.461576 127.5,129.5 127.890184,129.461576 128.265367,129.34776 128.611143,129.162936 128.914215,128.914216 129.162936,128.611144 129.34776,128.265368 129.461576,127.890183 129.5,127.499999 129.461576,127.109816 129.34776,126.734632 129.162936,126.388856 128.914216,126.085784 128.611144,125.837056 128.265368,125.65224 127.890183,125.538431 127.499999,125.5" style="fill: black" />
    <polygon slic3r:type="hole" points="4.109817,125.538432 3.734633,125.65224 3.388858,125.837055 3.085785,126.085783 2.837059,126.388856 2.652239,126.734632 2.538429,127.109815 2.5,127.5 2.538428,127.890183 2.652239,128.265367 2.837059,128.611144 3.085784,128.914215 3.388858,129.162935 3.734633,129.34776 4.109817,129.461575 4.499999,129.5 4.890181,129.461576 5.265364,129.347759 5.611141,129.162936 5.914215,128.914216 6.16294,128.611144 6.347759,128.265368 6.46157,127.890184 6.5,127.5 6.46157,127.109816 6.347759,126.734632 6.16294,126.388856 5.914215,126.085784 5.611141,125.837055 5.265365,125.65224 4.890182,125.538432 4.5,125.5" style="fill: black" />
    <polygon slic3r:type="hole" points="127.109816,2.538428 126.734632,2.652239 126.388855,2.837059 126.085784,3.085784 125.837056,3.388857 125.65224,3.734633 125.538432,4.109817 125.5,4.499999 125.538432,4.890181 125.65224,5.265365 125.837056,5.61114 126.085783,5.914214 126.388855,6.16294 126.734632,6.347759 127.109815,6.46157 127.5,6.5 127.890183,6.46157 128.265367,6.347759 128.611144,6.16294 128.914215,5.914215 129.162935,5.611141 129.34776,5.265364 129.461575,4.890182 129.5,4.5 129.461576,4.109817 129.34776,3.734634 129.162936,3.388858 128.914216,3.085785 128.611144,2.837059 128.265367,2.652239 127.890184,2.538429 127.5,2.5" style="fill: black" />
    <polygon slic3r:type="hole" points="4.109816,2.538429 3.734634,2.65224 3.388858,2.837058 3.085785,3.085785 2.837059,3.388858 2.65224,3.734633 2.538428,4.109817 2.5,4.499999 2.538429,4.890182 2.65224,5.265365 2.837058,5.61114 3.085785,5.914215 3.388858,6.162941 3.734634,6.347759 4.109816,6.46157 4.5,6.5 4.890182,6.46157 5.265365,6.347759 5.61114,6.162941 5.914214,5.914215 6.162941,5.61114 6.347759,5.265364 6.46157,4.890182 6.5,4.499999 6.461569,4.109816 6.347759,3.734634 6.16294,3.388858 5.914215,3.085785 5.61114,2.837058 5.265365,2.65224 4.890182,2.538429 4.5,2.5" style="fill: black" />
  </g>
  <g id="layer6" slic3r:z="2e-06">
    <polygon slic3r:type="contour" points="132,132 0,132 0,0 132,0" style="fill: white" />
    <polygon slic3r:type="hole" points="4.109816,125.538432 3.734634,125.652239 3.388858,125.837056 3.085784,126.085784 2.837059,126.388855 2.652239,126.734632 2.538429,127.109815 2.5,127.5 2.538429,127.890184 2.652239,128.265367 2.837059,128.611144 3.085784,128.914216 3.388857,129.162935 3.734634,129.34776 4.109817,129.461576 4.499999,129.5 4.890182,129.461576 5.265364,129.34776 5.611141,129.162935 5.914215,128.914215 6.16294,128.611144 6.347759,128.265367 6.46157,127.890184 6.5,127.5 6.46157,127.109815 6.347759,126.734632 6.16294,126.388855 5.914215,126.085784 5.611141,125.837055 5.265364,125.652239 4.890182,125.538432 4.499999,125.5" style="fill: black" />
    <polygon slic3r:type="hole" points="127.109816,125.538432 126.734631,125.65224 126.388856,125.837055 126.085784,126.085784 125.837055,126.388856 125.65224,126.734631 125.538432,127.109816 125.5,127.5 125.538432,127.890184 125.65224,128.265368 125.837055,128.611143 126.085784,128.914216 126.388856,129.162936 126.734631,129.347759 127.109816,129.461576 127.5,129.499999 127.890184,129.461576 128.265368,129.347759 128.611144,129.162936 128.914216,128.914216 129.162936,128.611144 129.347759,128.265368 129.461576,127.890184 129.499999,127.5 129.461576,127.109816 129.347759,126.734631 129.162936,126.388856 128.914216,126.085784 128.611143,125.837055 128.265368,125.65224 127.890184,125.538432 127.5,125.5" style="fill: black" />
    <polygon slic3r:type="hole" points="127.109815,2.538429 126.734632,2.652239 126.388855,2.837059 126.085784,3.085784 125.837056,3.388858 125.652239,3.734634 125.538432,4.109816 125.5,4.499999 125.538432,4.890182 125.652239,5.265364 125.837055,5.611141 126.085784,5.914215 126.388855,6.16294 126.734632,6.347759 127.109815,6.46157 127.5,6.5 127.890184,6.46157 128.265367,6.347759 128.611144,6.16294 128.914215,5.914215 129.162935,5.611141 129.34776,5.265364 129.461576,4.890182 129.5,4.499999 129.461576,4.109817 129.34776,3.734634 129.162935,3.388857 128.914216,3.085784 128.611144,2.837059 128.265367,2.652239 127.890184,2.538429 127.5,2.5" style="fill: black" />
    <polygon slic3r:type="hole" points="4.109817,2.538428 3.734634,2.65224 3.388858,2.837058 3.085785,3.085785 2.837058,3.388858 2.65224,3.734634 2.538428,4.109817 2.5,4.499999 2.538429,4.890181 2.65224,5.265365 2.837058,5.61114 3.085785,5.914215 3.388858,6.162941 3.734634,6.347759 4.109817,6.46157 4.499999,6.5 4.890182,6.46157 5.265365,6.347759 5.61114,6.162941 5.914215,5.914215 6.162941,5.61114 6.347759,5.265365 6.46157,4.890182 6.5,4.499999 6.46157,4.109817 6.347759,3.734634 6.162941,3.388858 5.914215,3.085785 5.61114,2.837058 5.265365,2.65224 4.890181,2.538429 4.499999,2.5" style="fill: black" />
  </g>
</svg>
