<?xml version="1.0" encoding="UTF-8" standalone="yes"?>
<!DOCTYPE svg PUBLIC "-//W3C//DTD SVG 1.0//EN" "http://www.w3.org/TR/2001/REC-SVG-20010904/DTD/svg10.dtd">
<svg width="252" height="132" xmlns="http://www.w3.org/2000/svg" xmlns:svg="http://www.w3.org/2000/svg" xmlns:xlink="http://www.w3.org/1999/xlink" xmlns:slic3r="http://slic3r.org/namespaces/slic3r">
  <!-- 
  Generated using Slic3r 1.3.1-dev
  http://slic3r.org/
   -->
  <g id="layer0" slic3r:z="1.75e-07">
    <polygon slic3r:type="contour" points="252,132 0,132 0,0 252,0" style="fill: white" />
    <polygon slic3r:type="hole" points="4.109816,125.538432 3.734634,125.65224 3.388862,125.837055 3.085785,126.085783 2.837059,126.388855 2.652244,126.734631 2.538429,127.109815 2.5,127.499999 2.538429,127.890183 2.652243,128.265367 2.837059,128.611144 3.085784,128.914216 3.388861,129.162935 3.734633,129.347759 4.109817,129.461576 4.5,129.5 4.890181,129.461576 5.265364,129.34776 5.611136,129.162936 5.914215,128.914216 6.16294,128.611144 6.347754,128.265368 6.46157,127.890184 6.5,127.499999 6.46157,127.109816 6.347755,126.734632 6.162941,126.388856 5.914215,126.085784 5.611137,125.837056 5.265365,125.65224 4.890181,125.538432 4.499999,125.5" style="fill: black" />
    <polygon slic3r:type="hole" points="247.109824,125.538431 246.73464,125.652239 246.388848,125.837056 246.085792,126.085783 245.837072,126.388855 245.652256,126.734632 245.538416,127.109815 245.5,127.5 245.538416,127.890184 245.652256,128.265368 245.837072,128.611144 246.085792,128.914215 246.388848,129.162936 246.73464,129.34776 247.109823,129.461576 247.499999,129.5 247.890175,129.461576 248.265359,129.34776 248.611152,129.162936 248.914208,128.914215 249.162927,128.611144 249.347744,128.265368 249.461584,127.890184 249.499999,127.5 249.461583,127.109815 249.347744,126.734632 249.162928,126.388855 248.914208,126.085784 248.611152,125.837056 248.265359,125.65224 247.890176,125.538432 247.5,125.5" style="fill: black" />
    <polygon slic3r:type="hole" points="247.109823,2.538429 246.73464,2.652239 246.388847,2.837059 246.085791,3.085785 245.837072,3.388858 245.652255,3.734634 245.538415,4.109816 245.5,4.499999 245.538416,4.890181 245.652255,5.265364 245.837072,5.611141 246.085792,5.914215 246.388848,6.162941 246.73464,6.347759 247.109823,6.46157 247.5,6.5 247.890176,6.461569 248.265359,6.347759 248.611152,6.162941 248.914208,5.914214 249.162927,5.611141 249.347744,5.265365 249.461584,4.890181 249.5,4.5 249.461584,4.109817 249.347744,3.734634 249.162927,3.388858 248.914208,3.085785 248.611151,2.837058 248.265359,2.65224 247.890176,2.538429 247.5,2.499999" style="fill: black" />
    <polygon slic3r:type="hole" points="4.109816,2.538429 3.734634,2.652239 3.388862,2.837058 3.085785,3.085784 2.837059,3.388858 2.652244,3.734633 2.538429,4.109817 2.5,4.499999 2.538429,4.890182 2.652244,5.265364 2.837059,5.61114 3.085784,5.914214 3.388861,6.16294 3.734634,6.347759 4.109817,6.46157 4.5,6.5 4.890182,6.46157 5.265365,6.347759 5.611137,6.162941 5.914214,5.914215 6.162941,5.61114 6.347755,5.265365 6.46157,4.890181 6.5,4.499999 6.46157,4.109816 6.347755,3.734634 6.16294,3.388858 5.914215,3.085785 5.611137,2.837059 5.265365,2.65224 4.890181,2.538428 4.5,2.5" style="fill: black" />
  </g>
  <g id="layer1" slic3r:z="5e-07">
    <polygon slic3r:type="contour" points="252,132 0,132 0,0 252,0" style="fill: white" />
    <polygon slic3r:type="hole" points="4.109817,125.538432 3.734633,125.65224 3.388862,125.837055 3.085785,126.085783 2.837059,126.388856 2.652244,126.734632 2.538429,127.109815 2.5,127.5 2.538429,127.890184 2.652243,128.265368 2.837059,128.611144 3.085785,128.914216 3.388862,129.162936 3.734634,129.34776 4.109817,129.461576 4.5,129.5 4.890182,129.461576 5.265365,129.34776 5.611136,129.162936 5.914215,128.914215 6.162941,128.611143 6.347755,128.265368 6.461569,127.890184 6.5,127.5 6.46157,127.109815 6.347755,126.734631 6.162941,126.388856 5.914215,126.085784 5.611137,125.837056 5.265365,125.65224 4.890182,125.538432 4.5,125.5" style="fill: black" />
    <polygon slic3r:type="hole" points="247.109824,125.538432 246.73464,125.65224 246.388847,125.837056 246.085792,126.085784 245.837072,126.388855 245.652255,126.734632 245.538416,127.109815 245.5,127.5 245.538416,127.890184 245.652255,128.265367 245.837072,128.611144 246.085792,128.914216 246.388848,129.162936 246.734639,129.347759 247.109823,129.461576 247.5,129.5 247.890176,129.461576 248.26536,129.347759 248.611152,129.162936 248.914208,128.914216 249.162927,128.611144 249.347744,128.265367 249.461583,127.890184 249.5,127.499999 249.461583,127.109815 249.347744,126.734632 249.162928,126.388856 248.914208,126.085783 248.611152,125.837056 248.265359,125.652239 247.890176,125.538432 247.5,125.5" style="fill: black" />
    <polygon slic3r:type="hole" points="4.109816,2.538429 3.734634,2.65224 3.388862,2.837059 3.085785,3.085784 2.837059,3.388857 2.652244,3.734633 2.538429,4.109817 2.5,4.5 2.538429,4.890182 2.652244,5.265365 2.837059,5.611141 3.085785,5.914215 3.388862,6.162941 3.734634,6.347759 4.109817,6.46157 4.5,6.5 4.890182,6.461569 5.265364,6.347759 5.611136,6.162941 5.914215,5.914215 6.162941,5.611141 6.347755,5.265365 6.46157,4.890181 6.5,4.499999 6.461569,4.109816 6.347754,3.734633 6.162941,3.388858 5.914215,3.085785 5.611137,2.837059 5.265365,2.65224 4.890182,2.538429 4.499999,2.5" style="fill: black" />
    <polygon slic3r:type="hole" points="247.109824,2.538429 246.73464,2.65224 246.388848,2.837058 246.085791,3.085785 245.837072,3.388857 245.652256,3.734633 245.538416,4.109816 245.5,4.5 245.538416,4.890182 245.652256,5.265364 245.837071,5.61114 246.085792,5.914215 246.388848,6.162941 246.734639,6.347759 247.109824,6.46157 247.499999,6.499999 247.890176,6.461569 248.26536,6.347758 248.611152,6.162941 248.914208,5.914214 249.162927,5.611141 249.347743,5.265365 249.461584,4.890181 249.5,4.499999 249.461584,4.109817 249.347744,3.734634 249.162928,3.388858 248.914208,3.085785 248.611152,2.837059 248.26536,2.65224 247.890176,2.538429 247.5,2.5" style="fill: black" />
  </g>
  <g id="layer2" slic3r:z="8e-07">
    <polygon slic3r:type="contour" points="252,132 0,132 0,0 252,0" style="fill: white" />
    <polygon slic3r:type="hole" points="4.109816,125.538432 3.734634,125.65224 3.388861,125.837056 3.085784,126.085784 2.837058,126.388856 2.652244,126.734632 2.538429,127.109815 2.5,127.499999 2.538428,127.890183 2.652244,128.265368 2.837059,128.611144 3.085784,128.914215 3.388861,129.162935 3.734634,129.34776 4.109817,129.461576 4.5,129.5 4.890182,129.461576 5.265364,129.34776 5.611137,129.162935 5.914215,128.914215 6.162941,128.611144 6.347754,128.265368 6.46157,127.890184 6.5,127.5 6.46157,127.109816 6.347755,126.734631 6.162941,126.388855 5.914214,126.085783 5.611137,125.837056 5.265364,125.65224 4.890181,125.538431 4.499999,125.5" style="fill: black" />
    <polygon slic3r:type="hole" points="247.109824,125.538431 246.73464,125.652239 246.388848,125.837055 246.085792,126.085784 245.837071,126.388856 245.652255,126.734632 245.538416,127.109816 245.5,127.5 245.538415,127.890184 245.652255,128.265367 245.837072,128.611144 246.085792,128.914216 246.388848,129.162936 246.73464,129.34776 247.109824,129.461576 247.499999,129.5 247.890175,129.461576 248.265359,129.34776 248.611152,129.162935 248.914208,128.914215 249.162928,128.611143 249.347744,128.265367 249.461584,127.890183 249.5,127.499999 249.461584,127.109815 249.347744,126.734632 249.162928,126.388855 248.914207,126.085783 248.611151,125.837055 248.26536,125.65224 247.890175,125.538431 247.5,125.5" style="fill: black" />
    <polygon slic3r:type="hole" points="247.109824,2.538428 246.73464,2.652239 246.388848,2.837058 246.085792,3.085784 245.837071,3.388858 245.652256,3.734633 245.538416,4.109816 245.5,4.499999 245.538415,4.890181 245.652256,5.265365 245.837072,5.611141 246.085792,5.914215 246.388847,6.16294 246.73464,6.347759 247.109824,6.46157 247.5,6.5 247.890176,6.46157 248.265359,6.347759 248.611151,6.162941 248.914208,5.914215 249.162928,5.61114 249.347744,5.265365 249.461584,4.890182 249.5,4.5 249.461583,4.109817 249.347744,3.734633 249.162927,3.388857 248.914208,3.085785 248.611152,2.837059 248.265359,2.652239 247.890176,2.538429 247.5,2.5" style="fill: black" />
    <polygon slic3r:type="hole" points="4.109816,2.538429 3.734634,2.652239 3.388862,2.837058 3.085784,3.085785 2.837059,3.388857 2.652243,3.734634 2.538429,4.109816 2.5,4.5 2.538429,4.890182 2.652244,5.265364 2.837059,5.611141 3.085784,5.914214 3.388862,6.162941 3.734634,6.347759 4.109816,6.461569 4.5,6.5 4.890182,6.461569 5.265364,6.347759 5.611137,6.162941 5.914215,5.914214 6.162941,5.61114 6.347755,5.265364 6.46157,4.890182 6.499999,4.5 6.46157,4.109816 6.347755,3.734634 6.162941,3.388857 5.914215,3.085785 5.611136,2.837059 5.265365,2.652239 4.890182,2.538429 4.499999,2.5" style="fill: black" />
  </g>
  <g id="layer3" slic3r:z="1.1e-06">
    <polygon slic3r:type="contour" points="252,132 0,132 0,0 252,0" style="fill: white" />
    <polygon slic3r:type="hole" points="4.109817,125.538432 3.734634,125.652239 3.388862,125.837055 3.085785,126.085784 2.837059,126.388855 2.652243,126.734632 2.538429,127.109815 2.5,127.5 2.538429,127.890184 2.652243,128.265367 2.837059,128.611144 3.085785,128.914215 3.388862,129.162936 3.734633,129.347759 4.109817,129.461576 4.499999,129.5 4.890181,129.461576 5.265365,129.34776 5.611136,129.162936 5.914215,128.914215 6.162941,128.611143 6.347755,128.265368 6.46157,127.890184 6.499999,127.499999 6.46157,127.109815 6.347755,126.734632 6.162941,126.388856 5.914215,126.085784 5.611136,125.837056 5.265364,125.652239 4.890181,125.538432 4.499999,125.5" style="fill: black" />
    <polygon slic3r:type="hole" points="247.109824,125.538432 246.73464,125.652239 246.388848,125.837056 246.085792,126.085783 245.837072,126.388855 245.652255,126.734632 245.538415,127.109816 245.5,127.499999 245.538415,127.890183 245.652256,128.265367 245.837072,128.611143 246.085792,128.914216 246.388847,129.162935 246.73464,129.34776 247.109824,129.461576 247.5,129.5 247.890175,129.461576 248.26536,129.34776 248.611152,129.162935 248.914207,128.914216 249.162927,128.611144 249.347744,128.265367 249.461584,127.890184 249.5,127.5 249.461584,127.109816 249.347744,126.734632 249.162928,126.388856 248.914208,126.085784 248.611152,125.837056 248.26536,125.65224 247.890175,125.538432 247.499999,125.5" style="fill: black" />
    <polygon slic3r:type="hole" points="247.109823,2.538429 246.73464,2.65224 246.388848,2.837058 246.085792,3.085785 245.837072,3.388857 245.652256,3.734634 245.538416,4.109817 245.5,4.5 245.538416,4.890182 245.652255,5.265364 245.837072,5.611141 246.085791,5.914214 246.388847,6.16294 246.73464,6.347759 247.109824,6.46157 247.5,6.5 247.890176,6.46157 248.26536,6.347759 248.611151,6.16294 248.914207,5.914215 249.162927,5.611141 249.347743,5.265365 249.461584,4.890181 249.5,4.499999 249.461583,4.109816 249.347744,3.734634 249.162927,3.388857 248.914208,3.085785 248.611152,2.837059 248.26536,2.65224 247.890175,2.538428 247.499999,2.5" style="fill: black" />
    <polygon slic3r:type="hole" points="4.109817,2.538429 3.734634,2.65224 3.388862,2.837059 3.085784,3.085785 2.837059,3.388857 2.652243,3.734634 2.538428,4.109817 2.5,4.499999 2.538428,4.890182 2.652243,5.265364 2.837059,5.611141 3.085785,5.914215 3.388861,6.16294 3.734633,6.347758 4.109817,6.46157 4.499999,6.5 4.890181,6.46157 5.265365,6.347759 5.611136,6.162941 5.914215,5.914214 6.16294,5.611141 6.347755,5.265365 6.46157,4.890181 6.5,4.499999 6.46157,4.109816 6.347755,3.734634 6.162941,3.388857 5.914215,3.085785 5.611136,2.837058 5.265365,2.65224 4.890182,2.538429 4.5,2.499999" style="fill: black" />
  </g>
  <g id="layer4" slic3r:z="1.4e-06">
    <polygon slic3r:type="contour" points="252,132 0,132 0,0 252,0" style="fill: white" />
    <polygon slic3r:type="hole" points="4.109816,125.538432 3.734634,125.65224 3.388861,125.837056 3.085785,126.085784 2.837058,126.388856 2.652244,126.734631 2.538428,127.109816 2.5,127.499999 2.538429,127.890183 2.652244,128.265368 2.837059,128.611144 3.085784,128.914215 3.388862,129.162936 3.734634,129.34776 4.109816,129.461575 4.499999,129.5 4.890182,129.461576 5.265365,129.34776 5.611137,129.162935 5.914215,128.914216 6.16294,128.611144 6.347754,128.265368 6.46157,127.890183 6.5,127.499999 6.46157,127.109816 6.347755,126.734632 6.162941,126.388856 5.914215,126.085784 5.611137,125.837056 5.265364,125.652239 4.890182,125.538432 4.499999,125.5" style="fill: black" />
    <polygon slic3r:type="hole" points="247.109824,125.538432 246.73464,125.65224 246.388848,125.837056 246.085792,126.085783 245.837072,126.388856 245.652256,126.734632 245.538416,127.109815 245.5,127.499999 245.538416,127.890183 245.652255,128.265367 245.837071,128.611143 246.085791,128.914215 246.388848,129.162935 246.73464,129.34776 247.109824,129.461576 247.5,129.5 247.890175,129.461576 248.265359,129.34776 248.611152,129.162936 248.914207,128.914216 249.162928,128.611144 249.347744,128.265367 249.461584,127.890183 249.5,127.5 249.461584,127.109816 249.347744,126.734632 249.162928,126.388856 248.914208,126.085784 248.611152,125.837056 248.265359,125.65224 247.890176,125.538432 247.5,125.5" style="fill: black" />
    <polygon slic3r:type="hole" points="4.109817,2.538429 3.734634,2.65224 3.388861,2.837059 3.085785,3.085785 2.837059,3.388858 2.652244,3.734633 2.538429,4.109817 2.5,4.5 2.538429,4.890182 2.652244,5.265365 2.837058,5.611141 3.085785,5.914215 3.388861,6.16294 3.734633,6.347758 4.109817,6.46157 4.5,6.5 4.890181,6.46157 5.265364,6.347759 5.611137,6.162941 5.914215,5.914215 6.162941,5.611141 6.347754,5.265365 6.46157,4.890182 6.5,4.499999 6.461569,4.109816 6.347754,3.734633 6.162941,3.388858 5.914215,3.085785 5.611137,2.837059 5.265365,2.65224 4.890182,2.538429 4.499999,2.5" style="fill: black" />
    <polygon slic3r:type="hole" points="247.109824,2.538428 246.73464,2.652239 246.388848,2.837058 246.085792,3.085784 245.837072,3.388858 245.652256,3.734634 245.538416,4.109817 245.5,4.499999 245.538415,4.890181 245.652256,5.265365 245.837071,5.61114 246.085791,5.914214 246.388847,6.16294 246.734639,6.347759 247.109823,6.46157 247.499999,6.5 247.890175,6.46157 248.265359,6.347759 248.611151,6.162941 248.914207,5.914215 249.162928,5.61114 249.347744,5.265365 249.461584,4.890181 249.5,4.499999 249.461584,4.109817 249.347744,3.734633 249.162928,3.388858 248.914208,3.085785 248.611152,2.837059 248.26536,2.65224 247.890176,2.538429 247.5,2.5" style="fill: black" />
  </g>
  <g id="layer5" slic3r:z="1.7e-06">
    <polygon slic3r:type="contour" points="252,132 0,132 0,0 252,0" style="fill: white" />
    <polygon slic3r:type="hole" points="4.109817,125.538432 3.734633,125.65224 3.388862,125.837055 3.085785,126.085783 2.837059,126.388856 2.652244,126.734632 2.538429,127.109815 2.5,127.5 2.538429,127.890184 2.652244,128.265368 2.837059,128.611144 3.085784,128.914215 3.388861,129.162936 3.734633,129.34776 4.109817,129.461575 4.499999,129.5 4.890181,129.461576 5.265365,129.347759 5.611136,129.162936 5.914214,128.914216 6.162941,128.611143 6.347755,128.265368 6.46157,127.890184 6.5,127.5 6.46157,127.109816 6.347755,126.734632 6.162941,126.388856 5.914215,126.085784 5.611136,125.837055 5.265365,125.65224 4.890182,125.538432 4.5,125.5" style="fill: black" />
    <polygon slic3r:type="hole" points="247.109824,125.538432 246.734639,125.65224 246.388848,125.837056 246.085791,126.085784 245.837072,126.388855 245.652255,126.734632 245.538415,127.109816 245.499999,127.499999 245.538416,127.890184 245.652255,128.265367 245.837072,128.611144 246.085792,128.914216 246.388848,129.162936 246.73464,129.34776 247.109824,129.461576 247.499999,129.5 247.890175,129.461576 248.26536,129.347759 248.611152,129.162935 248.914208,128.914215 249.162927,128.611144 249.347744,128.265367 249.461584,127.890184 249.5,127.5 249.461584,127.109815 249.347744,126.734632 249.162928,126.388856 248.914208,126.085784 248.611151,125.837055 248.26536,125.65224 247.890175,125.538432 247.5,125.5" style="fill: black" />
    <polygon slic3r:type="hole" points="4.109816,2.538429 3.734633,2.65224 3.388862,2.837059 3.085785,3.085785 2.837059,3.388858 2.652244,3.734633 2.538428,4.109817 2.5,4.499999 2.538429,4.890182 2.652244,5.265365 2.837058,5.61114 3.085785,5.914215 3.388862,6.162941 3.734634,6.347759 4.109816,6.46157 4.5,6.5 4.890182,6.46157 5.265365,6.347758 5.611136,6.162941 5.914214,5.914215 6.16294,5.611141 6.347755,5.265365 6.46157,4.890182 6.5,4.499999 6.461569,4.109816 6.347755,3.734634 6.162941,3.388858 5.914215,3.085785 5.611136,2.837058 5.265365,2.65224 4.890182,2.538429 4.5,2.5" style="fill: black" />
    <polygon slic3r:type="hole" points="247.109824,2.538429 246.734639,2.65224 246.388848,2.837059 246.085792,3.085785 245.837072,3.388857 245.652255,3.734634 245.538415,4.109817 245.5,4.5 245.538416,4.890182 245.652256,5.265365 245.837072,5.611141 246.085791,5.914215 246.388847,6.16294 246.734639,6.347758 247.109824,6.46157 247.5,6.5 247.890175,6.46157 248.26536,6.347758 248.611151,6.162941 248.914208,5.914215 249.162928,5.611141 249.347744,5.265364 249.461584,4.890181 249.5,4.5 249.461584,4.109817 249.347744,3.734634 249.162927,3.388857 248.914208,3.085785 248.611152,2.837059 248.26536,2.65224 247.890175,2.538429 247.5,2.5" style="fill: black" />
  </g>
  <g id="layer6" slic3r:z="2e-06">
    <polygon slic3r:type="contour" points="252,132 0,132 0,0 252,0" style="fill: white" />
    <polygon slic3r:type="hole" points="4.109816,125.538432 3.734634,125.652239 3.388862,125.837055 3.085784,126.085784 2.837059,126.388856 2.652244,126.734631 2.538429,127.109815 2.5,127.5 2.538429,127.890184 2.652244,128.265368 2.837059,128.611144 3.085784,128.914215 3.388861,129.162935 3.734634,129.34776 4.109817,129.461576 4.499999,129.5 4.890182,129.461576 5.265364,129.34776 5.611137,129.162935 5.914215,128.914216 6.162941,128.611144 6.347755,128.265368 6.46157,127.890184 6.5,127.5 6.46157,127.109816 6.347755,126.734632 6.162941,126.388855 5.914215,126.085784 5.611137,125.837056 5.265364,125.652239 4.890182,125.538432 4.499999,125.5" style="fill: black" />
    <polygon slic3r:type="hole" points="247.109824,125.538432 246.734639,125.65224 246.388848,125.837055 246.085792,126.085784 245.837072,126.388856 245.652255,126.734632 245.538416,127.109815 245.5,127.5 245.538416,127.890184 245.652255,128.265367 245.837072,128.611143 246.085792,128.914216 246.388848,129.162936 246.734639,129.347759 247.109824,129.461575 247.5,129.5 247.890176,129.461575 248.26536,129.347759 248.611151,129.162936 248.914207,128.914216 249.162928,128.611143 249.347744,128.265367 249.461584,127.890184 249.5,127.5 249.461584,127.109815 249.347744,126.734632 249.162928,126.388856 248.914208,126.085784 248.611151,125.837055 248.26536,125.65224 247.890176,125.538432 247.5,125.5" style="fill: black" />
    <polygon slic3r:type="hole" points="4.109817,2.538428 3.734633,2.65224 3.388862,2.837058 3.085785,3.085784 2.837058,3.388858 2.652244,3.734633 2.538428,4.109817 2.5,4.499999 2.538429,4.890181 2.652244,5.265365 2.837058,5.61114 3.085785,5.914215 3.388862,6.162941 3.734633,6.347758 4.109817,6.46157 4.499999,6.5 4.890182,6.46157 5.265365,6.347758 5.611137,6.162941 5.914214,5.914215 6.162941,5.61114 6.347754,5.265365 6.461569,4.890182 6.5,4.499999 6.46157,4.109817 6.347754,3.734633 6.162941,3.388858 5.914214,3.085784 5.611137,2.837059 5.265365,2.65224 4.890181,2.538429 4.499999,2.5" style="fill: black" />
    <polygon slic3r:type="hole" points="247.109823,2.538429 246.73464,2.652239 246.388847,2.837059 246.085791,3.085785 245.837072,3.388857 245.652255,3.734634 245.538416,4.109816 245.5,4.5 245.538416,4.890182 245.652255,5.265364 245.837072,5.611141 246.085791,5.914215 246.388847,6.16294 246.73464,6.347759 247.109823,6.46157 247.5,6.5 247.890176,6.46157 248.265359,6.347759 248.611152,6.16294 248.914208,5.914215 249.162927,5.611141 249.347744,5.265364 249.461584,4.890182 249.5,4.5 249.461583,4.109816 249.347744,3.734634 249.162927,3.388857 248.914208,3.085785 248.611152,2.837059 248.265359,2.652239 247.890176,2.538429 247.5,2.5" style="fill: black" />
  </g>
</svg>
