<?xml version="1.0" encoding="UTF-8" standalone="yes"?>
<!DOCTYPE svg PUBLIC "-//W3C//DTD SVG 1.0//EN" "http://www.w3.org/TR/2001/REC-SVG-20010904/DTD/svg10.dtd">
<svg width="249" height="129" xmlns="http://www.w3.org/2000/svg" xmlns:svg="http://www.w3.org/2000/svg" xmlns:xlink="http://www.w3.org/1999/xlink" xmlns:slic3r="http://slic3r.org/namespaces/slic3r">
  <!-- 
  Generated using Slic3r 1.3.1-dev
  http://slic3r.org/
   -->
  <g id="layer0" slic3r:z="1.75e-07">
    <polygon slic3r:type="contour" points="249,129 0,129 0,0 249,0" style="fill: white" />
    <polygon slic3r:type="hole" points="3.109817,123.538432 2.734634,123.65224 2.388862,123.837055 2.085784,124.085783 1.837059,124.388855 1.652244,124.734632 1.538429,125.109815 1.5,125.5 1.538429,125.890184 1.652243,126.265367 1.837058,126.611143 2.085784,126.914216 2.388861,127.162943 2.734633,127.34776 3.109817,127.461568 3.499999,127.5 3.890181,127.461568 4.265364,127.347759 4.611136,127.162944 4.914214,126.914216 5.16294,126.611144 5.347755,126.265367 5.461569,125.890184 5.5,125.5 5.46157,125.109815 5.347755,124.734632 5.16294,124.388856 4.914215,124.085784 4.611137,123.837056 4.265365,123.65224 3.890182,123.538432 3.499999,123.5" style="fill: black" />
    <polygon slic3r:type="hole" points="245.109824,123.538432 244.73464,123.65224 244.388847,123.837056 244.085792,124.085784 243.837072,124.388855 243.652255,124.734632 243.538416,125.109816 243.5,125.499999 243.538416,125.890184 243.652255,126.265367 243.837072,126.611144 244.085791,126.914216 244.388847,127.162943 244.73464,127.34776 245.109824,127.461568 245.5,127.5 245.890176,127.461568 246.265359,127.34776 246.611152,127.162943 246.914208,126.914215 247.162927,126.611144 247.347744,126.265367 247.461584,125.890184 247.5,125.5 247.461584,125.109816 247.347744,124.734632 247.162927,124.388855 246.914208,124.085784 246.611152,123.837056 246.26536,123.65224 245.890175,123.538431 245.499999,123.5" style="fill: black" />
    <polygon slic3r:type="hole" points="245.109824,1.538429 244.73464,1.65224 244.388848,1.837058 244.085792,2.085784 243.837072,2.388857 243.652256,2.734634 243.538416,3.109817 243.5,3.5 243.538416,3.890182 243.652256,4.265365 243.837072,4.611141 244.085791,4.914214 244.388848,5.162941 244.73464,5.347759 245.109823,5.46157 245.499999,5.5 245.890176,5.46157 246.265359,5.347759 246.611152,5.162941 246.914208,4.914214 247.162927,4.611141 247.347744,4.265364 247.461584,3.890182 247.5,3.499999 247.461583,3.109816 247.347743,2.734634 247.162928,2.388858 246.914208,2.085784 246.611152,1.837059 246.265359,1.652239 245.890176,1.538429 245.5,1.5" style="fill: black" />
    <polygon slic3r:type="hole" points="3.109817,1.538428 2.734634,1.65224 2.388862,1.837058 2.085784,2.085783 1.837059,2.388857 1.652243,2.734634 1.538428,3.109817 1.499999,3.5 1.538428,3.890182 1.652243,4.265364 1.837059,4.61114 2.085784,4.914214 2.388861,5.16294 2.734633,5.347759 3.109817,5.46157 3.499999,5.5 3.890182,5.46157 4.212112,5.363913 4.212112,5.376222 4.611136,5.162941 4.914214,4.914215 5.16294,4.611141 5.347754,4.265365 5.46157,3.890182 5.5,3.5 5.46157,3.109817 5.347755,2.734634 5.162941,2.388858 4.914215,2.085784 4.611136,1.837058 4.265365,1.65224 3.890181,1.538429 3.499999,1.5" style="fill: black" />
  </g>
  <g id="layer1" slic3r:z="5e-07">
    <polygon slic3r:type="contour" points="249,129 0,129 0,0 249,0" style="fill: white" />
    <polygon slic3r:type="hole" points="245.109824,123.538432 244.73464,123.65224 244.388848,123.837056 244.085792,124.085783 243.837072,124.388855 243.652256,124.734631 243.538416,125.109816 243.5,125.5 243.538416,125.890184 243.652255,126.265367 243.837071,126.611143 244.085791,126.914215 244.388847,127.162943 244.73464,127.34776 245.109824,127.461568 245.499999,127.5 245.890175,127.461568 246.265359,127.347759 246.611151,127.162944 246.914207,126.914216 247.162927,126.611144 247.347743,126.265368 247.461584,125.890183 247.5,125.499999 247.461584,125.109816 247.347744,124.734632 247.162928,124.388856 246.914208,124.085784 246.611152,123.837056 246.265359,123.65224 245.890175,123.538432 245.5,123.499999" style="fill: black" />
    <polygon slic3r:type="hole" points="3.109817,123.538432 2.734633,123.65224 2.388861,123.837056 2.085783,124.085784 1.837059,124.388855 1.652243,124.734632 1.538428,125.109816 1.5,125.5 1.538429,125.890184 1.652243,126.265367 1.837059,126.611144 2.085784,126.914216 2.388862,127.162944 2.734634,127.34776 3.109817,127.461568 3.499999,127.5 3.890181,127.461568 4.265365,127.347759 4.611137,127.162943 4.914215,126.914215 5.16294,126.611144 5.347755,126.265367 5.46157,125.890184 5.5,125.499999 5.461569,125.109815 5.347755,124.734632 5.162941,124.388856 4.914214,124.085783 4.611136,123.837055 4.265365,123.65224 3.890182,123.538432 3.5,123.5" style="fill: black" />
    <polygon slic3r:type="hole" points="245.109823,1.538429 244.73464,1.652239 244.388847,1.837059 244.085791,2.085784 243.837072,2.388858 243.652256,2.734634 243.538416,3.109816 243.5,3.5 243.538416,3.890182 243.652255,4.265364 243.837071,4.61114 244.085792,4.914215 244.388847,5.16294 244.73464,5.347759 245.109824,5.46157 245.5,5.5 245.890176,5.46157 246.265359,5.347759 246.611152,5.16294 246.914208,4.914215 247.162928,4.61114 247.347743,4.265365 247.461584,3.890181 247.5,3.5 247.461584,3.109817 247.347743,2.734633 247.162928,2.388858 246.914207,2.085783 246.611152,1.837059 246.265359,1.65224 245.890175,1.538429 245.5,1.5" style="fill: black" />
    <polygon slic3r:type="hole" points="3.109816,1.538429 2.734634,1.652239 2.388861,1.837059 2.085784,2.085783 1.837058,2.388858 1.652244,2.734634 1.538429,3.109816 1.5,3.499999 1.538429,3.890182 1.652244,4.265365 1.837059,4.611141 2.085784,4.914214 2.388861,5.16294 2.734633,5.347758 3.109816,5.46157 3.5,5.5 3.890182,5.46157 4.249571,5.352549 4.249571,5.3562 4.611136,5.162941 4.914214,4.914215 5.162941,4.611141 5.347754,4.265365 5.46157,3.890182 5.5,3.499999 5.461752,3.111672 5.462132,3.111672 5.352545,2.750426 5.356196,2.750426 5.162941,2.388858 4.914215,2.085784 4.611137,1.837059 4.265365,1.65224 3.890182,1.538429 3.5,1.499999" style="fill: black" />
  </g>
  <g id="layer2" slic3r:z="8e-07">
    <polygon slic3r:type="contour" points="249,129 0,129 0,0 249,0" style="fill: white" />
    <polygon slic3r:type="hole" points="245.109823,123.538432 244.734639,123.65224 244.388847,123.837056 244.085792,124.085784 243.837072,124.388856 243.652255,124.734632 243.538415,125.109816 243.5,125.5 243.538416,125.890184 243.652256,126.265368 243.837072,126.611144 244.085792,126.914216 244.388848,127.162944 244.73464,127.34776 245.109824,127.461568 245.5,127.5 245.890176,127.461567 246.26536,127.347759 246.611152,127.162943 246.914208,126.914215 247.162928,126.611143 247.347744,126.265367 247.461584,125.890183 247.5,125.499999 247.461583,125.109815 247.347743,124.734632 247.162927,124.388855 246.914208,124.085784 246.611151,123.837056 246.265359,123.652239 245.890175,123.538432 245.5,123.5" style="fill: black" />
    <polygon slic3r:type="hole" points="3.109816,123.538432 2.734634,123.65224 2.388862,123.837055 2.085784,124.085784 1.837058,124.388856 1.652243,124.734632 1.538429,125.109815 1.5,125.499999 1.538429,125.890184 1.652244,126.265368 1.837059,126.611144 2.085783,126.914215 2.388862,127.162944 2.734633,127.34776 3.109816,127.461567 3.5,127.5 3.890182,127.461567 4.265364,127.34776 4.611136,127.162944 4.914215,126.914215 5.162941,126.611143 5.347755,126.265367 5.46157,125.890184 5.5,125.5 5.46157,125.109816 5.347755,124.734631 5.16294,124.388855 4.914215,124.085784 4.611136,123.837055 4.265365,123.65224 3.890182,123.538432 3.5,123.5" style="fill: black" />
    <polygon slic3r:type="hole" points="3.109816,1.538429 2.734634,1.65224 2.388861,1.837059 2.085783,2.085784 1.837058,2.388858 1.652244,2.734634 1.538429,3.109816 1.5,3.5 1.538429,3.890182 1.652243,4.265364 1.837059,4.611141 2.085783,4.914214 2.388862,5.162941 2.734633,5.347759 3.109816,5.46157 3.5,5.5 3.890182,5.461569 4.265365,5.347759 4.611136,5.162941 4.914214,4.914215 5.162941,4.61114 5.347754,4.265365 5.461569,3.890182 5.5,3.5 5.461569,3.109816 5.347755,2.734634 5.162941,2.388858 4.914215,2.085784 4.611137,1.837059 4.265364,1.65224 3.890182,1.538429 3.499999,1.5" style="fill: black" />
    <polygon slic3r:type="hole" points="245.109824,1.538429 244.734639,1.65224 244.388848,1.837058 244.085792,2.085784 243.837072,2.388857 243.652256,2.734633 243.538416,3.109817 243.5,3.5 243.538416,3.890181 243.652255,4.265364 243.837071,4.61114 244.085792,4.914215 244.388848,5.162941 244.73464,5.347759 245.109824,5.46157 245.5,5.5 245.890176,5.46157 246.26536,5.347758 246.611152,5.16294 246.914207,4.914215 247.162928,4.611141 247.347743,4.265365 247.461584,3.890182 247.5,3.499999 247.461584,3.109817 247.347744,2.734634 247.162928,2.388858 246.914208,2.085784 246.611151,1.837058 246.26536,1.65224 245.890175,1.538429 245.5,1.5" style="fill: black" />
  </g>
  <g id="layer3" slic3r:z="1.1e-06">
    <polygon slic3r:type="contour" points="249,129 0,129 0,0 249,0" style="fill: white" />
    <polygon slic3r:type="hole" points="245.109824,123.538432 244.73464,123.65224 244.388848,123.837056 244.085792,124.085783 243.837072,124.388856 243.652256,124.734632 243.538415,125.109816 243.5,125.5 243.538416,125.890184 243.652256,126.265368 243.837072,126.611144 244.085792,126.914216 244.388847,127.162943 244.73464,127.34776 245.109823,127.461568 245.499999,127.5 245.890175,127.461568 246.265359,127.34776 246.611152,127.162943 246.914207,126.914216 247.162927,126.611144 247.347743,126.265368 247.461584,125.890183 247.5,125.499999 247.461584,125.109816 247.347743,124.734632 247.162928,124.388856 246.914208,124.085784 246.611152,123.837056 246.26536,123.65224 245.890176,123.538432 245.5,123.5" style="fill: black" />
    <polygon slic3r:type="hole" points="3.109816,123.538432 2.734634,123.65224 2.388862,123.837055 2.085783,124.085784 1.837059,124.388855 1.652243,124.734632 1.538428,125.109816 1.5,125.5 1.538429,125.890184 1.652244,126.265368 1.837059,126.611144 2.085784,126.914216 2.388862,127.162944 2.734633,127.34776 3.109817,127.461568 3.5,127.5 3.890182,127.461568 4.265365,127.34776 4.611136,127.162944 4.914215,126.914215 5.162941,126.611144 5.347755,126.265367 5.46157,125.890183 5.5,125.499999 5.461569,125.109815 5.347755,124.734632 5.162941,124.388856 4.914215,124.085784 4.611136,123.837055 4.265365,123.65224 3.890181,123.538432 3.499999,123.5" style="fill: black" />
    <polygon slic3r:type="hole" points="245.109824,1.538429 244.73464,1.652239 244.388848,1.837058 244.085792,2.085783 243.837072,2.388858 243.652255,2.734634 243.538415,3.109817 243.5,3.5 243.538416,3.890182 243.652256,4.265365 243.837072,4.611141 244.085791,4.914214 244.388847,5.16294 244.734639,5.347758 245.109824,5.46157 245.499999,5.5 245.890175,5.46157 246.26536,5.347759 246.611152,5.16294 246.914207,4.914215 247.162927,4.611141 247.347744,4.265364 247.461584,3.890181 247.5,3.499999 247.461583,3.109816 247.347744,2.734634 247.162928,2.388858 246.914208,2.085784 246.611152,1.837059 246.26536,1.65224 245.890176,1.538429 245.499999,1.5" style="fill: black" />
    <polygon slic3r:type="hole" points="3.109817,1.538428 2.734634,1.65224 2.388862,1.837059 2.085783,2.085784 1.837059,2.388858 1.652243,2.734634 1.538429,3.109816 1.5,3.499999 1.538429,3.890182 1.652244,4.265365 1.837058,4.61114 2.085784,4.914215 2.388861,5.162941 2.734633,5.347758 3.109816,5.461569 3.499999,5.5 3.890181,5.46157 4.265365,5.347759 4.611137,5.16294 4.914214,4.914215 5.16294,4.611141 5.347755,4.265364 5.461569,3.890182 5.5,3.5 5.46157,3.109816 5.347755,2.734634 5.16294,2.388857 4.914214,2.085783 4.611137,1.837059 4.265365,1.65224 3.890182,1.538429 3.5,1.5" style="fill: black" />
  </g>
  <g id="layer4" slic3r:z="1.4e-06">
    <polygon slic3r:type="contour" points="249,129 0,129 0,0 249,0" style="fill: white" />
    <polygon slic3r:type="hole" points="3.109816,123.538432 2.734634,123.65224 2.388861,123.837056 2.085784,124.085784 1.837059,124.388855 1.652244,124.734631 1.538429,125.109816 1.5,125.5 1.538429,125.890184 1.652244,126.265367 1.837058,126.611143 2.085783,126.914215 2.388862,127.162944 2.734634,127.34776 3.109817,127.461568 3.5,127.5 3.890181,127.461568 4.265364,127.34776 4.611137,127.162943 4.914215,126.914215 5.162941,126.611143 5.347755,126.265368 5.46157,125.890183 5.5,125.499999 5.46157,125.109816 5.347755,124.734632 5.162941,124.388856 4.914214,124.085783 4.611136,123.837055 4.265364,123.652239 3.890181,123.538431 3.5,123.499999" style="fill: black" />
    <polygon slic3r:type="hole" points="245.109824,123.538432 244.73464,123.652239 244.388848,123.837055 244.085791,124.085784 243.837071,124.388856 243.652255,124.734632 243.538416,125.109816 243.5,125.499999 243.538416,125.890184 243.652256,126.265368 243.837072,126.611144 244.085792,126.914216 244.388848,127.162944 244.734639,127.347759 245.109823,127.461567 245.499999,127.5 245.890176,127.461568 246.265359,127.34776 246.611151,127.162944 246.914208,126.914215 247.162928,126.611143 247.347744,126.265367 247.461584,125.890183 247.499999,125.5 247.461584,125.109816 247.347744,124.734631 247.162927,124.388855 246.914207,124.085783 246.611151,123.837056 246.26536,123.65224 245.890176,123.538432 245.5,123.5" style="fill: black" />
    <polygon slic3r:type="hole" points="245.109824,1.538428 244.73464,1.652239 244.388848,1.837058 244.085792,2.085783 243.837072,2.388857 243.652256,2.734634 243.538416,3.109817 243.5,3.5 243.538415,3.890181 243.652256,4.265364 243.837072,4.61114 244.085792,4.914215 244.388848,5.162941 244.73464,5.347759 245.109823,5.46157 245.499999,5.5 245.890176,5.46157 246.265359,5.347759 246.611152,5.162941 246.914208,4.914214 247.162927,4.611141 247.347744,4.265365 247.461584,3.890182 247.5,3.5 247.461584,3.109817 247.347744,2.734634 247.162928,2.388858 246.914207,2.085783 246.611152,1.837059 246.26536,1.65224 245.890176,1.538429 245.499999,1.499999" style="fill: black" />
    <polygon slic3r:type="hole" points="3.109816,1.538429 2.734634,1.65224 2.388861,1.837059 2.085783,2.085784 1.837058,2.388858 1.652244,2.734634 1.538429,3.109817 1.499999,3.5 1.538428,3.890182 1.652244,4.265365 1.837058,4.61114 2.085783,4.914214 2.388862,5.162941 2.734634,5.347758 3.109817,5.46157 3.5,5.5 3.890181,5.46157 4.265364,5.347759 4.611137,5.162941 4.914215,4.914214 5.162941,4.61114 5.347755,4.265365 5.46157,3.890181 5.5,3.5 5.46157,3.109817 5.347754,2.734633 5.162941,2.388858 4.914214,2.085783 4.611136,1.837058 4.265364,1.652239 3.890182,1.538429 3.499999,1.5" style="fill: black" />
  </g>
  <g id="layer5" slic3r:z="1.7e-06">
    <polygon slic3r:type="contour" points="249,129 0,129 0,0 249,0" style="fill: white" />
    <polygon slic3r:type="hole" points="245.109824,123.538431 244.734639,123.65224 244.388847,123.837056 244.085792,124.085783 243.837072,124.388855 243.652255,124.734632 243.538415,125.109816 243.499999,125.5 243.538416,125.890184 243.652256,126.265368 243.837072,126.611144 244.085792,126.914216 244.388847,127.162943 244.73464,127.34776 245.109824,127.461568 245.5,127.5 245.890175,127.461568 246.26536,127.347759 246.611152,127.162943 246.914207,126.914216 247.162927,126.611144 247.347744,126.265367 247.461584,125.890183 247.5,125.499999 247.461583,125.109815 247.347744,124.734631 247.162928,124.388856 246.914207,124.085783 246.611152,123.837056 246.265359,123.652239 245.890175,123.538432 245.5,123.499999" style="fill: black" />
    <polygon slic3r:type="hole" points="3.109817,123.538432 2.734634,123.652239 2.388862,123.837056 2.085784,124.085783 1.837059,124.388856 1.652244,124.734631 1.538429,125.109816 1.5,125.5 1.538428,125.890183 1.652244,126.265368 1.837058,126.611143 2.085783,126.914215 2.388862,127.162944 2.734633,127.347759 3.109817,127.461568 3.5,127.499999 3.890182,127.461568 4.265365,127.34776 4.611136,127.162944 4.914214,126.914216 5.162941,126.611144 5.347755,126.265368 5.46157,125.890184 5.5,125.5 5.46157,125.109816 5.347754,124.734631 5.162941,124.388856 4.914215,124.085784 4.611137,123.837056 4.265365,123.65224 3.890182,123.538432 3.499999,123.5" style="fill: black" />
    <polygon slic3r:type="hole" points="245.109823,1.538429 244.73464,1.65224 244.388847,1.837059 244.085792,2.085783 243.837072,2.388857 243.652255,2.734634 243.538416,3.109817 243.5,3.499999 243.538416,3.890182 243.652255,4.265364 243.837072,4.611141 244.085792,4.914215 244.388848,5.162941 244.73464,5.347759 245.109823,5.461569 245.499999,5.5 245.890176,5.46157 246.26536,5.347759 246.611152,5.16294 246.914207,4.914215 247.162928,4.611141 247.347744,4.265364 247.461584,3.890182 247.5,3.499999 247.461584,3.109816 247.347744,2.734634 247.162928,2.388858 246.914207,2.085783 246.611152,1.837059 246.265359,1.652239 245.890176,1.538429 245.499999,1.5" style="fill: black" />
    <polygon slic3r:type="hole" points="3.109817,1.538428 2.734634,1.652239 2.388862,1.837059 2.085784,2.085783 1.837059,2.388858 1.652244,2.734634 1.538429,3.109816 1.5,3.499999 1.538429,3.890182 1.652243,4.265364 1.837059,4.611141 2.085784,4.914215 2.388861,5.16294 2.734633,5.347758 3.109816,5.461569 3.499999,5.5 3.890181,5.46157 4.265364,5.347759 4.611136,5.162941 4.914214,4.914215 5.16294,4.611141 5.347755,4.265364 5.46157,3.890182 5.5,3.5 5.46157,3.109816 5.347755,2.734634 5.162941,2.388857 4.914215,2.085784 4.611137,1.837059 4.265365,1.65224 3.890182,1.538429 3.499999,1.5" style="fill: black" />
  </g>
  <g id="layer6" slic3r:z="2e-06">
    <polygon slic3r:type="contour" points="249,129 0,129 0,0 249,0" style="fill: white" />
    <polygon slic3r:type="hole" points="3.109817,123.538432 2.734634,123.652239 2.388862,123.837055 2.085784,124.085783 1.837058,124.388856 1.652244,124.734632 1.538428,125.109816 1.5,125.5 1.538428,125.890183 1.652244,126.265368 1.837058,126.611143 2.085783,126.914215 2.388861,127.162943 2.734634,127.34776 3.109817,127.461568 3.499999,127.5 3.890182,127.461568 4.265364,127.34776 4.611136,127.162944 4.914214,126.914216 5.162941,126.611143 5.347755,126.265368 5.46157,125.890183 5.5,125.5 5.46157,125.109816 5.347755,124.734632 5.162941,124.388856 4.914215,124.085784 4.611137,123.837055 4.265365,123.652239 3.890182,123.538431 3.499999,123.5" style="fill: black" />
    <polygon slic3r:type="hole" points="245.109824,123.538431 244.73464,123.65224 244.388848,123.837055 244.085792,124.085784 243.837072,124.388856 243.652256,124.734631 243.538416,125.109815 243.5,125.499999 243.538416,125.890183 243.652255,126.265367 243.837071,126.611143 244.085792,126.914216 244.388848,127.162944 244.734639,127.347759 245.109823,127.461567 245.499999,127.5 245.890175,127.461568 246.26536,127.34776 246.611151,127.162944 246.914208,126.914216 247.162928,126.611143 247.347743,126.265368 247.461583,125.890184 247.5,125.5 247.461584,125.109816 247.347744,124.734632 247.162928,124.388856 246.914207,124.085784 246.611151,123.837055 246.26536,123.65224 245.890176,123.538432 245.5,123.5" style="fill: black" />
    <polygon slic3r:type="hole" points="3.109817,1.538429 2.734633,1.65224 2.388862,1.837058 2.085784,2.085784 1.837058,2.388858 1.652244,2.734634 1.538429,3.109816 1.5,3.499999 1.538429,3.890182 1.652244,4.265365 1.837058,4.61114 2.085784,4.914215 2.388862,5.162941 2.734633,5.347759 3.109817,5.46157 3.499999,5.5 3.890182,5.46157 4.265365,5.347758 4.611137,5.162941 4.914214,4.914215 5.162941,4.61114 5.347754,4.265365 5.46157,3.890182 5.5,3.5 5.46157,3.109816 5.347755,2.734634 5.162941,2.388858 4.914215,2.085784 4.611136,1.837058 4.265364,1.652239 3.890182,1.538429 3.499999,1.5" style="fill: black" />
    <polygon slic3r:type="hole" points="245.109824,1.538429 244.73464,1.652239 244.388848,1.837059 244.085792,2.085783 243.837071,2.388858 243.652256,2.734633 243.538415,3.109817 243.5,3.5 243.538416,3.890182 243.652255,4.265364 243.837072,4.611141 244.085792,4.914215 244.388847,5.16294 244.73464,5.347759 245.109823,5.46157 245.499999,5.5 245.890175,5.46157 246.265359,5.347759 246.611152,5.16294 246.914207,4.914215 247.162928,4.61114 247.347744,4.265364 247.461584,3.890181 247.5,3.5 247.461583,3.109816 247.347744,2.734634 247.162927,2.388857 246.914207,2.085783 246.611152,1.837058 246.265359,1.652239 245.890176,1.538429 245.499999,1.5" style="fill: black" />
  </g>
  <g id="layer7" slic3r:z="2.3e-06">
    <polygon slic3r:type="contour" points="249,129 0,129 0,0 249,0" style="fill: white" />
    <polygon slic3r:type="hole" points="3.109817,123.538431 2.734634,123.65224 2.388862,123.837055 2.085784,124.085783 1.837059,124.388856 1.652244,124.734632 1.538429,125.109816 1.5,125.5 1.538429,125.890184 1.652243,126.265367 1.837059,126.611144 2.085784,126.914216 2.388861,127.162944 2.734634,127.34776 3.109817,127.461568 3.499999,127.5 3.890182,127.461568 4.265365,127.34776 4.611137,127.162943 4.914215,126.914216 5.16294,126.611144 5.347755,126.265368 5.46157,125.890184 5.5,125.5 5.46157,125.109816 5.347755,124.734632 5.162941,124.388856 4.914214,124.085783 4.611137,123.837056 4.265365,123.65224 3.890182,123.538432 3.5,123.5" style="fill: black" />
    <polygon slic3r:type="hole" points="245.109823,123.538432 244.73464,123.652239 244.388848,123.837055 244.085791,124.085784 243.837072,124.388855 243.652256,124.734631 243.538416,125.109815 243.5,125.5 243.538416,125.890183 243.652256,126.265367 243.837072,126.611144 244.085791,126.914215 244.388847,127.162943 244.734639,127.347759 245.109823,127.461568 245.5,127.5 245.890176,127.461568 246.265359,127.34776 246.611151,127.162944 246.914207,126.914216 247.162927,126.611144 247.347744,126.265368 247.461584,125.890184 247.5,125.5 247.461584,125.109816 247.347744,124.734632 247.162927,124.388855 246.914208,124.085784 246.611152,123.837056 246.26536,123.65224 245.890176,123.538432 245.499999,123.5" style="fill: black" />
    <polygon slic3r:type="hole" points="245.109823,1.538429 244.734639,1.65224 244.388847,1.837059 244.085791,2.085784 243.837071,2.388858 243.652256,2.734633 243.538415,3.109817 243.5,3.5 243.538415,3.890181 243.652256,4.265365 243.837072,4.611141 244.085791,4.914214 244.388847,5.162941 244.73464,5.347759 245.109824,5.46157 245.5,5.5 245.890176,5.46157 246.26536,5.347758 246.611151,5.162941 246.914208,4.914215 247.162928,4.61114 247.347743,4.265365 247.461584,3.890181 247.5,3.5 247.461583,3.109817 247.347744,2.734634 247.162928,2.388858 246.914208,2.085783 246.611152,1.837059 246.26536,1.65224 245.890175,1.538429 245.499999,1.5" style="fill: black" />
    <polygon slic3r:type="hole" points="3.109816,1.538429 2.734633,1.65224 2.388861,1.837059 2.085783,2.085784 1.837058,2.388858 1.652244,2.734633 1.538429,3.109817 1.5,3.5 1.538429,3.890181 1.652244,4.265365 1.837058,4.61114 2.085783,4.914214 2.388861,5.162941 2.734634,5.347759 3.109817,5.46157 3.5,5.5 3.890182,5.46157 4.265365,5.347758 4.611137,5.16294 4.914214,4.914215 5.162941,4.61114 5.347754,4.265365 5.46157,3.890182 5.5,3.5 5.46157,3.109817 5.347755,2.734634 5.162941,2.388858 4.914215,2.085784 4.611137,1.837059 4.265364,1.652239 3.890181,1.538429 3.499999,1.5" style="fill: black" />
  </g>
  <g id="layer8" slic3r:z="2.6e-06">
    <polygon slic3r:type="contour" points="249,129 0,129 0,0 249,0" style="fill: white" />
    <polygon slic3r:type="hole" points="3.109816,123.538432 2.734634,123.652239 2.388862,123.837055 2.085784,124.085783 1.837059,124.388856 1.652244,124.734631 1.538428,125.109816 1.5,125.5 1.538429,125.890183 1.652243,126.265367 1.837058,126.611143 2.085784,126.914216 2.388862,127.162943 2.734634,127.34776 3.109816,127.461568 3.5,127.5 3.890182,127.461568 4.265364,127.34776 4.611136,127.162944 4.914214,126.914216 5.162941,126.611143 5.347754,126.265368 5.46157,125.890183 5.5,125.499999 5.46157,125.109816 5.347755,124.734632 5.162941,124.388856 4.914215,124.085784 4.611137,123.837056 4.265365,123.65224 3.890182,123.538431 3.499999,123.5" style="fill: black" />
    <polygon slic3r:type="hole" points="245.109823,123.538432 244.73464,123.652239 244.388847,123.837056 244.085792,124.085784 243.837072,124.388856 243.652255,124.734632 243.538416,125.109815 243.5,125.499999 243.538416,125.890183 243.652255,126.265367 243.837072,126.611144 244.085792,126.914216 244.388847,127.162943 244.73464,127.34776 245.109824,127.461568 245.5,127.5 245.890176,127.461568 246.265359,127.34776 246.611152,127.162943 246.914208,126.914216 247.162928,126.611143 247.347744,126.265368 247.461584,125.890184 247.5,125.5 247.461584,125.109816 247.347744,124.734632 247.162927,124.388855 246.914207,124.085783 246.611152,123.837056 246.265359,123.652239 245.890175,123.538432 245.499999,123.5" style="fill: black" />
    <polygon slic3r:type="hole" points="3.109816,1.538429 2.734634,1.65224 2.388861,1.837059 2.085783,2.085784 1.837058,2.388858 1.652244,2.734634 1.538428,3.109817 1.5,3.499999 1.538429,3.890182 1.652243,4.265364 1.837058,4.61114 2.085784,4.914215 2.388862,5.162941 2.734634,5.347759 3.109817,5.46157 3.5,5.5 3.890181,5.46157 4.265364,5.347759 4.611136,5.162941 4.914215,4.914215 5.162941,4.61114 5.347755,4.265365 5.46157,3.890181 5.5,3.499999 5.46157,3.109817 5.347755,2.734634 5.162941,2.388858 4.914215,2.085783 4.611137,1.837059 4.265364,1.652239 3.890181,1.538428 3.499999,1.5" style="fill: black" />
    <polygon slic3r:type="hole" points="245.109823,1.538429 244.73464,1.652239 244.388847,1.837059 244.085791,2.085784 243.837072,2.388857 243.652256,2.734634 243.538416,3.109816 243.5,3.5 243.538415,3.890181 243.652255,4.265364 243.837072,4.611141 244.085791,4.914215 244.388847,5.16294 244.73464,5.347759 245.109824,5.46157 245.5,5.5 245.890176,5.46157 246.265359,5.347759 246.611152,5.162941 246.914208,4.914214 247.162927,4.611141 247.347744,4.265364 247.461584,3.890181 247.5,3.5 247.461584,3.109817 247.347744,2.734633 247.162927,2.388857 246.914208,2.085784 246.611152,1.837059 246.265359,1.652239 245.890175,1.538428 245.5,1.5" style="fill: black" />
  </g>
  <g id="layer9" slic3r:z="2.9e-06">
    <polygon slic3r:type="contour" points="249,129 0,129 0,0 249,0" style="fill: white" />
    <polygon slic3r:type="hole" points="3.109817,123.538431 2.734634,123.65224 2.388862,123.837055 2.085784,124.085783 1.837059,124.388856 1.652244,124.734631 1.538428,125.109816 1.5,125.5 1.538428,125.890183 1.652244,126.265368 1.837058,126.611143 2.085784,126.914216 2.388862,127.162944 2.734633,127.347759 3.109816,127.461567 3.499999,127.5 3.890181,127.461568 4.265364,127.34776 4.611136,127.162944 4.914215,126.914216 5.16294,126.611144 5.347755,126.265367 5.46157,125.890183 5.5,125.5 5.46157,125.109816 5.347754,124.734631 5.16294,124.388855 4.914215,124.085784 4.611137,123.837056 4.265364,123.65224 3.890182,123.538432 3.5,123.499999" style="fill: black" />
    <polygon slic3r:type="hole" points="245.109824,123.538432 244.73464,123.652239 244.388847,123.837056 244.085792,124.085783 243.837072,124.388855 243.652255,124.734632 243.538416,125.109815 243.5,125.5 243.538415,125.890183 243.652256,126.265367 243.837072,126.611144 244.085792,126.914216 244.388847,127.162943 244.73464,127.34776 245.109823,127.461568 245.499999,127.5 245.890176,127.461568 246.265359,127.34776 246.611152,127.162943 246.914207,126.914216 247.162928,126.611144 247.347744,126.265367 247.461584,125.890184 247.5,125.499999 247.461584,125.109816 247.347744,124.734632 247.162927,124.388855 246.914207,124.085783 246.611152,123.837056 246.265359,123.652239 245.890176,123.538432 245.5,123.5" style="fill: black" />
    <polygon slic3r:type="hole" points="245.109824,1.538428 244.734639,1.65224 244.388848,1.837058 244.085792,2.085783 243.837071,2.388858 243.652255,2.734634 243.538416,3.109816 243.5,3.499999 243.538416,3.890182 243.652256,4.265365 243.837071,4.61114 244.085792,4.914215 244.388848,5.16294 244.73464,5.347759 245.109824,5.46157 245.5,5.5 245.890175,5.46157 246.26536,5.347758 246.611152,5.162941 246.914208,4.914214 247.162928,4.611141 247.347744,4.265365 247.461584,3.890181 247.5,3.5 247.461584,3.109817 247.347743,2.734633 247.162928,2.388858 246.914208,2.085784 246.611151,1.837058 246.26536,1.65224 245.890175,1.538428 245.499999,1.5" style="fill: black" />
    <polygon slic3r:type="hole" points="3.109817,1.538429 2.734634,1.652239 2.388862,1.837058 2.085784,2.085783 1.837059,2.388857 1.652243,2.734634 1.538429,3.109816 1.499999,3.5 1.538428,3.890182 1.652243,4.265364 1.837059,4.611141 2.085784,4.914215 2.388862,5.162941 2.734634,5.347758 3.109816,5.461569 3.5,5.5 3.890182,5.461569 4.265364,5.347759 4.611137,5.16294 4.914214,4.914215 5.162941,4.61114 5.347755,4.265364 5.46157,3.890182 5.5,3.5 5.46157,3.109816 5.347755,2.734634 5.162941,2.388858 4.914215,2.085784 4.611137,1.837059 4.265365,1.65224 3.890181,1.538429 3.5,1.5" style="fill: black" />
  </g>
</svg>
